<?xml version="1.0" standalone="no"?>
<!DOCTYPE svg PUBLIC "-//W3C//DTD SVG 20010904//EN"
 "http://www.w3.org/TR/2001/REC-SVG-20010904/DTD/svg10.dtd">
<svg version="1.0" xmlns="http://www.w3.org/2000/svg"
 width="812.000000pt" height="812.000000pt" viewBox="0 0 812.000000 812.000000"
 preserveAspectRatio="xMidYMid meet">
<metadata>
Created by potrace 1.11, written by Peter Selinger 2001-2013
</metadata>
<g transform="translate(0.000000,812.000000) scale(0.100000,-0.100000)"
fill="#000000" stroke="none">
<path d="M1306 7809 c5 -270 4 -314 -10 -343 -13 -29 -38 -45 -68 -46 -4 0 -3
12 3 26 13 36 6 39 -31 18 -25 -15 -34 -16 -50 -6 -25 16 -33 15 -27 -1 9 -23
-6 -35 -50 -38 -52 -4 -62 5 -38 31 22 25 14 36 -15 20 -31 -17 -36 -5 -10 27
21 27 21 28 1 37 -11 5 -26 6 -33 2 -50 -26 -63 -38 -63 -58 0 -18 -6 -23 -26
-23 -14 0 -33 -6 -42 -14 -10 -7 -17 -10 -17 -7 0 4 -9 2 -21 -4 -15 -9 -24
-8 -35 1 -23 19 -162 18 -174 -1 -7 -11 -5 -16 5 -18 19 -4 19 -18 0 -26 -9
-3 -18 1 -21 9 -9 22 -19 18 -34 -11 -12 -21 -19 -25 -43 -20 -16 3 -46 3 -66
0 -32 -5 -40 -12 -55 -47 -30 -70 -74 -105 -64 -52 4 20 3 23 -8 14 -8 -6 -14
-17 -14 -25 0 -19 -17 -26 -37 -15 -12 6 -39 5 -78 -3 -54 -11 -60 -14 -63
-39 -3 -21 -9 -27 -27 -27 -29 0 -43 -18 -21 -26 9 -3 16 -12 16 -19 0 -16
-40 -24 -68 -14 l-22 8 0 -3559 0 -3560 1010 0 c732 0 1010 3 1010 11 0 6 -7
8 -16 5 -11 -4 -18 1 -21 14 -3 11 -9 20 -14 20 -5 0 -9 4 -9 10 0 5 16 9 35
7 31 -2 33 -4 18 -14 -20 -15 -13 -26 11 -17 9 4 28 29 42 56 14 28 21 47 16
44 -16 -10 -246 24 -260 39 -4 4 13 5 38 1 25 -3 89 -10 142 -16 l97 -11 48
52 c26 28 51 57 56 64 4 8 39 31 77 51 39 21 70 42 70 46 0 12 -13 10 -39 -8
-15 -11 -26 -13 -32 -7 -11 11 -79 -15 -79 -29 0 -4 -8 -16 -18 -26 -25 -25
-98 -18 -105 10 -5 16 -3 17 9 7 16 -13 30 -6 19 10 -3 6 -16 11 -28 11 -12 0
-28 4 -36 9 -11 7 -10 11 5 19 10 6 15 14 11 19 -5 4 -19 -4 -31 -19 -25 -32
-36 -35 -36 -10 0 15 -2 15 -10 2 -8 -11 -9 -8 -4 13 7 30 -11 38 -35 15 -10
-11 -14 -10 -22 5 -6 9 -19 17 -29 17 -11 0 -20 4 -20 9 0 5 -3 16 -6 25 -4
11 -1 16 10 16 23 0 43 47 28 62 -9 9 -16 8 -29 -5 -13 -13 -14 -17 -3 -17 20
0 3 -13 -19 -15 -12 -1 -17 3 -14 12 4 9 0 11 -13 6 -14 -5 -16 -3 -11 11 4
10 3 15 -3 11 -15 -9 -12 -31 5 -45 19 -16 20 -50 1 -50 -19 0 -29 17 -16 25
6 4 7 11 4 17 -4 5 -15 -7 -25 -28 l-19 -39 5 65 c4 42 16 87 35 127 36 74 71
105 109 96 35 -8 39 -13 19 -24 -10 -5 -15 -15 -12 -22 5 -15 74 -21 74 -7 0
6 8 10 18 10 16 1 16 1 0 11 -27 15 -21 29 12 29 17 0 30 -4 30 -10 0 -5 5
-10 10 -10 6 0 8 11 4 27 -6 22 -4 25 10 20 10 -4 26 -2 37 4 15 7 24 7 35 -2
13 -10 18 -6 15 14 -2 11 17 9 21 -3 6 -19 336 -36 795 -41 l112 -1 60 53 c59
53 92 73 203 122 61 27 68 24 68 -28 0 -26 -38 -47 -152 -84 -38 -13 -68 -26
-68 -31 0 -12 169 48 201 71 32 22 32 23 53 -56 39 -144 46 -169 56 -179 5 -5
10 -18 10 -28 0 -15 11 -46 43 -115 7 -16 5 -38 -7 -81 -19 -68 -22 -242 -5
-291 l11 -31 659 0 c420 0 659 4 659 10 0 6 9 10 20 10 11 0 20 2 20 5 0 9
-40 45 -49 45 -5 0 -3 13 5 29 8 15 15 39 16 53 2 19 7 24 23 20 12 -2 27 4
36 14 13 16 12 17 -13 12 -26 -5 -26 -5 -25 52 2 41 6 56 15 53 6 -3 12 -10
12 -16 0 -16 10 -2 14 19 3 11 7 28 11 39 5 16 5 17 -4 5 -5 -8 -13 -11 -17
-7 -4 4 -13 2 -21 -5 -18 -14 -28 -4 -18 19 5 10 7 22 6 27 -1 4 3 14 9 22 18
20 2 56 -21 49 -10 -3 -28 -7 -38 -10 -11 -3 -22 -1 -26 5 -3 5 1 10 9 10 9 0
16 5 16 10 0 6 -6 10 -14 10 -19 0 -14 55 5 56 37 3 41 5 35 19 -8 21 3 45 20
45 18 0 18 14 -1 30 -23 19 -18 37 13 46 20 5 23 8 10 11 -24 6 -23 19 3 26
12 3 18 10 14 16 -3 6 5 16 20 23 l25 11 -20 22 c-19 20 -19 23 -5 29 9 3 13
10 10 16 -3 5 -1 10 6 10 7 0 10 3 6 6 -3 3 3 14 13 24 11 11 16 27 13 39 -4
17 1 23 25 32 17 6 33 16 35 24 4 10 -1 9 -24 -2 -17 -8 -33 -12 -36 -9 -8 8
17 36 31 36 7 0 22 18 34 41 23 43 29 89 12 89 -5 0 -10 4 -10 9 0 5 18 12 40
16 38 6 57 25 25 25 -19 0 -31 48 -17 70 6 10 9 34 6 54 -4 37 3 45 24 24 7
-7 12 -8 12 -2 0 6 -6 16 -12 22 -10 10 -10 15 -1 20 6 4 23 24 36 44 19 27
22 39 14 48 -9 8 -8 15 6 25 10 7 13 15 8 16 -15 6 -1 49 15 49 10 0 13 10 9
35 -3 26 0 35 10 35 8 0 15 6 15 14 0 8 12 17 28 19 26 4 26 4 5 12 -22 7 -32
25 -15 25 5 0 14 10 20 23 6 12 11 16 11 10 1 -7 5 -13 11 -13 5 0 8 16 6 36
-2 23 3 38 13 44 13 8 12 9 -6 10 -13 0 -23 5 -23 10 0 6 4 10 9 10 5 0 7 10
3 22 -3 14 -2 19 6 14 8 -5 12 0 12 13 0 12 6 21 13 21 8 0 8 3 -2 9 -12 8
-10 16 7 50 12 23 22 48 22 56 0 8 9 24 20 35 11 11 20 27 20 35 0 8 4 15 9
15 5 0 7 25 5 55 -2 44 0 55 12 55 8 0 12 4 9 10 -3 5 3 20 14 32 12 12 21 27
21 32 0 6 3 22 6 36 l6 25 -21 -24 c-12 -12 -18 -27 -15 -32 3 -5 0 -9 -6 -9
-6 0 -8 12 -5 32 5 27 4 30 -10 18 -10 -8 -15 -9 -15 -1 0 6 5 12 10 12 6 1
16 2 22 3 8 1 12 15 10 42 -3 40 11 65 26 49 4 -4 1 -10 -5 -12 -7 -3 -12 -17
-12 -31 1 -17 3 -21 6 -9 2 9 8 17 13 17 5 0 15 3 24 6 13 5 16 -1 16 -30 0
-20 -5 -36 -11 -36 -6 0 -7 -5 -2 -12 4 -7 8 -24 8 -38 0 -17 5 -24 15 -23 10
2 16 -5 16 -17 0 -13 -7 -20 -21 -21 -16 0 -15 -3 9 -13 18 -8 24 -16 17 -20
-8 -5 -8 -13 -1 -26 8 -16 8 -18 -5 -14 -17 7 -19 -4 -6 -25 5 -7 14 -10 20
-7 7 4 11 -1 11 -13 0 -17 -5 -20 -27 -17 -16 2 -22 1 -15 -1 6 -2 12 -9 12
-15 0 -5 6 -8 14 -5 8 3 17 -1 20 -9 3 -8 -1 -14 -9 -14 -21 0 -18 -18 4 -25
10 -3 21 -15 24 -26 4 -13 12 -19 23 -17 23 4 43 87 24 98 -8 5 -11 24 -8 49
3 30 0 41 -10 41 -12 0 -12 3 -2 15 10 12 10 18 -1 32 -19 22 -21 120 -3 127
16 6 19 36 3 36 -6 0 -9 10 -7 23 4 30 54 33 172 12 169 -31 345 -160 321
-237 -4 -10 -1 -18 5 -18 7 0 9 -8 4 -22 -4 -13 -7 -31 -6 -41 1 -13 -4 -17
-15 -12 -14 5 -14 3 2 -15 10 -11 14 -20 9 -20 -5 0 -2 -5 6 -10 10 -6 11 -10
3 -10 -7 0 -13 -4 -13 -10 0 -16 40 -51 50 -45 6 4 10 -1 10 -9 0 -9 -7 -16
-16 -16 -26 0 -12 -76 18 -100 29 -22 78 -113 78 -144 0 -26 44 -71 80 -81 14
-4 53 -22 88 -41 34 -19 72 -34 84 -34 16 0 18 -3 9 -14 -9 -11 -7 -19 11 -38
13 -13 35 -30 50 -37 26 -13 33 -12 109 28 44 23 83 40 87 37 4 -2 16 0 27 5
17 6 16 8 -10 9 -16 1 -43 3 -60 5 -20 3 -25 1 -15 -5 11 -7 8 -10 -12 -15
-31 -8 -48 0 -48 20 0 18 40 29 102 29 43 0 46 2 25 13 -12 7 -30 10 -39 7
-12 -4 -18 0 -18 10 0 19 -5 20 -31 6 -10 -6 -19 -17 -19 -25 0 -8 -5 -15 -11
-15 -5 0 -7 5 -4 10 3 6 -1 10 -10 10 -13 0 -16 6 -11 24 5 22 3 23 -38 23
-24 0 -48 3 -55 7 -6 4 -11 1 -11 -7 0 -22 -28 -29 -58 -14 -20 9 -28 21 -30
47 -2 19 -8 39 -13 45 -5 5 -9 33 -9 61 0 36 -7 64 -21 89 -13 22 -25 66 -30
115 -8 71 -7 82 12 114 20 35 20 37 3 88 -9 29 -26 71 -37 93 -14 28 -20 57
-19 96 1 39 -3 61 -13 69 -16 14 -20 65 -6 74 5 3 24 8 44 10 40 5 37 9 95
-136 31 -78 46 -104 77 -128 21 -16 47 -30 59 -30 30 0 79 53 115 125 42 86
57 103 72 87 7 -6 29 -12 49 -12 31 0 38 4 50 33 7 17 15 35 18 40 2 4 -6 7
-17 7 -28 0 -28 36 0 51 12 6 55 10 103 8 110 -4 122 1 130 58 3 25 2 51 -3
57 -19 23 -22 72 -6 86 18 15 20 63 3 91 -11 17 -10 22 11 38 23 17 23 19 6
29 -17 9 -17 11 -3 26 11 11 18 43 22 103 4 49 9 104 13 123 l5 35 14 -39 c8
-22 11 -54 8 -75 -10 -61 -13 -191 -4 -191 4 0 6 -9 3 -20 -3 -11 -9 -20 -14
-20 -5 0 -9 -10 -8 -22 0 -22 1 -22 9 -3 9 19 9 19 16 -2 3 -13 11 -23 16 -23
6 0 8 -6 5 -14 -3 -8 2 -17 11 -21 16 -6 16 -7 1 -18 -21 -16 -13 -74 12 -90
21 -13 27 -77 8 -77 -6 0 -9 6 -6 14 3 8 -1 20 -9 26 -11 10 -14 9 -14 -7 0
-28 -34 -65 -47 -52 -8 8 -13 -1 -18 -30 -5 -33 -11 -41 -28 -41 -41 0 -122
-37 -134 -61 -21 -40 -16 -68 15 -81 41 -17 212 -19 206 -3 -3 7 0 16 5 20 22
13 0 23 -39 18 -31 -4 -41 -2 -46 11 -12 31 20 50 77 47 41 -2 59 3 91 24 29
19 43 24 51 16 6 -6 14 -11 18 -11 11 0 17 63 8 94 -5 17 -5 34 1 41 5 6 11
62 15 125 3 63 7 138 9 165 3 28 8 95 11 150 9 132 24 166 24 55 0 -47 -4
-109 -8 -138 -5 -36 -4 -51 3 -49 11 4 22 103 25 220 1 59 -1 68 -16 65 -16
-3 -18 4 -16 52 12 267 25 505 33 605 6 66 14 200 20 299 5 98 12 181 15 184
9 10 13 -2 19 -58 15 -143 19 -167 33 -200 35 -86 36 -198 3 -605 -5 -60 -16
-247 -24 -415 -9 -168 -21 -377 -27 -465 -6 -88 -13 -210 -16 -271 -5 -108 -5
-112 17 -124 13 -7 64 -12 128 -11 86 0 109 3 118 16 9 13 33 17 99 19 90 3
105 10 105 49 0 10 5 27 10 38 8 15 7 19 -5 19 -8 0 -15 5 -15 10 0 6 7 10 15
10 12 0 13 4 5 19 -5 11 -10 29 -10 40 0 24 46 56 80 56 30 0 38 16 39 72 1
23 4 44 9 46 4 3 6 -39 4 -93 -2 -64 1 -107 9 -121 10 -20 9 -25 -12 -41 -12
-11 -36 -22 -51 -25 -39 -8 -66 -45 -73 -101 -4 -26 -9 -55 -11 -64 -4 -13 7
-19 52 -28 31 -7 71 -9 90 -5 l34 6 0 3004 0 3005 -190 0 -190 0 -1 -57 c0
-32 -2 -96 -5 -143 -2 -47 -6 -148 -9 -225 -7 -172 -13 -211 -27 -197 -6 6 -9
39 -6 80 l4 70 -36 5 c-45 5 -80 -8 -80 -30 0 -9 -12 -30 -27 -46 -20 -21 -23
-28 -10 -24 11 4 17 1 17 -8 0 -8 5 -15 10 -15 18 0 11 -15 -21 -48 -19 -19
-29 -38 -25 -47 3 -8 0 -15 -7 -16 -7 0 -48 -2 -92 -5 -78 -6 -103 -12 -77
-21 14 -5 17 -43 3 -43 -5 0 -21 4 -35 10 -27 10 -34 2 -15 -17 9 -9 6 -19
-10 -41 -22 -32 -27 -52 -12 -52 24 0 8 -78 -20 -95 -14 -10 -11 -42 6 -49 19
-7 19 -30 2 -45 -19 -15 -20 -71 -2 -71 16 0 23 -20 27 -74 2 -28 -3 -42 -17
-53 -20 -15 -19 -15 3 -10 26 6 29 -5 7 -23 -9 -7 -25 -26 -36 -42 -20 -27
-20 -28 -1 -28 10 0 37 16 59 35 51 43 63 44 64 3 l1 -33 11 28 c11 26 27 37
27 17 0 -5 4 -10 9 -10 5 0 10 15 10 33 -1 47 5 68 29 108 40 66 185 171 213
153 8 -5 10 -37 4 -118 -3 -61 -9 -151 -12 -201 -3 -49 -6 -103 -7 -120 -2
-16 -3 -47 -4 -67 -2 -34 -10 -44 -98 -118 -52 -44 -98 -80 -102 -80 -4 0 -25
-25 -47 -56 -22 -30 -51 -62 -65 -71 -14 -9 -34 -25 -45 -35 -11 -11 -56 -49
-100 -85 -88 -72 -174 -154 -175 -166 0 -4 14 0 31 8 35 19 49 13 26 -9 -10
-10 -14 -29 -12 -53 2 -22 -4 -53 -15 -75 -20 -43 -26 -105 -37 -428 -6 -202
-6 -280 2 -288 4 -5 77 18 86 27 4 3 10 60 13 126 17 317 20 414 18 465 -4 85
5 119 28 113 21 -6 69 41 70 68 0 8 11 26 25 39 14 13 36 43 50 66 13 23 33
44 43 46 13 4 22 18 26 41 11 59 72 92 98 53 11 -17 23 1 67 101 22 50 50 104
63 118 13 15 23 31 23 36 0 5 5 9 10 9 16 0 9 -541 -7 -552 -9 -5 -5 -7 11 -6
13 2 26 -2 28 -9 4 -12 -5 -22 -56 -56 -41 -27 -80 -115 -88 -196 -3 -31 -13
-64 -21 -74 -9 -10 -52 -42 -96 -70 -44 -29 -114 -74 -155 -102 l-76 -50 -6
-80 c-8 -97 -19 -279 -19 -319 0 -41 -11 -26 -21 31 -12 61 -54 123 -85 123
-12 0 -26 -5 -29 -10 -16 -26 -56 -258 -66 -380 -14 -184 -19 -220 -29 -220
-12 0 -41 97 -34 114 8 21 -17 31 -31 13 -15 -21 -23 -21 -27 -1 -2 11 -12 7
-41 -19 -31 -29 -39 -32 -46 -20 -5 10 -3 27 6 44 8 16 12 32 9 37 -2 4 -8 51
-11 104 -6 82 -4 102 11 130 14 26 18 63 20 179 4 200 20 338 43 369 22 30 42
32 56 4 5 -11 16 -19 23 -16 6 2 15 -4 19 -13 13 -35 41 72 46 175 6 119 -11
134 -25 23 -1 -7 -9 -13 -18 -13 -24 0 -55 -38 -55 -68 0 -19 -9 -31 -34 -46
-34 -20 -35 -20 -27 0 4 10 12 86 17 167 5 82 11 161 14 175 3 15 10 108 15
207 5 99 14 245 19 325 6 80 13 264 16 410 3 146 8 292 10 325 6 63 13 196 14
255 1 44 34 66 106 71 l50 4 -2 -102 c-1 -57 1 -103 5 -103 13 0 28 15 35 34
6 14 15 17 41 14 31 -3 35 -1 40 25 4 21 1 33 -10 41 -14 11 -14 13 0 25 8 7
20 10 25 7 5 -4 12 -2 16 4 3 5 16 10 28 10 20 1 20 2 5 11 -10 5 -18 16 -18
24 0 7 -9 17 -20 20 -14 5 -19 13 -15 28 2 12 7 69 9 127 3 58 7 148 10 200 3
52 8 152 11 223 l5 127 -70 0 c-38 0 -70 -3 -70 -7 0 -5 5 -25 11 -46 7 -27 7
-42 0 -51 -11 -14 -64 -19 -93 -10 -21 6 -24 30 -4 37 7 3 16 22 18 41 l4 36
-63 0 c-70 0 -74 -5 -52 -70 13 -37 3 -50 -42 -50 -15 0 -32 -7 -39 -15 -7 -9
-20 -13 -29 -10 -33 10 -48 -59 -50 -226 -1 -85 -6 -170 -11 -189 -9 -35 -21
-303 -40 -880 -6 -173 -13 -360 -16 -415 -5 -98 -6 -101 -40 -133 -33 -31 -35
-37 -40 -115 -3 -45 -8 -88 -10 -96 -8 -24 -27 4 -33 49 l-6 40 -43 -21 c-23
-12 -49 -34 -57 -49 -8 -15 -26 -31 -40 -34 -24 -6 -31 -28 -26 -73 1 -6 -3
-14 -9 -18 -5 -3 -10 -15 -10 -26 0 -12 -7 -19 -20 -19 -22 0 -27 15 -9 26 8
5 8 9 -1 14 -9 6 -9 12 0 30 9 17 9 25 -3 38 -9 11 -11 25 -6 42 10 35 11 60
1 60 -4 0 -9 -17 -10 -37 -2 -21 -5 -39 -8 -42 -3 -3 -20 3 -38 13 -20 11 -48
16 -72 14 -32 -2 -40 -7 -42 -26 -4 -24 -12 -17 -128 95 -23 22 -38 30 -53 26
-23 -6 -23 -11 -5 120 4 36 2 54 -11 73 -9 14 -15 40 -14 57 2 18 -1 39 -6 46
-6 11 -4 13 7 9 12 -5 15 1 14 33 -1 34 -4 39 -23 39 -14 0 -23 6 -23 15 0 8
4 15 10 15 5 0 8 17 6 38 -2 20 1 43 7 50 7 9 5 12 -8 12 -17 0 -17 1 -2 18
21 23 22 36 3 29 -11 -4 -13 1 -10 21 3 15 11 30 17 35 9 7 9 10 -1 14 -9 3
-11 16 -6 39 4 22 2 34 -5 34 -6 0 -11 5 -11 10 0 6 7 10 15 10 17 0 17 30 1
42 -6 4 -4 33 3 75 7 37 10 88 8 113 -3 25 -6 51 -6 58 -1 7 -5 11 -10 7 -5
-3 -12 -1 -16 5 -3 5 -1 10 4 10 6 0 11 5 11 10 0 6 -7 10 -15 10 -18 0 -18 4
-6 47 7 24 6 35 -4 43 -12 10 -15 -53 -17 -404 -3 -354 -5 -417 -18 -429 -10
-10 -51 -16 -130 -20 l-116 -5 -28 50 -28 50 35 36 c48 51 67 92 74 165 9 101
-38 189 -122 228 -70 32 -140 20 -200 -35 -15 -14 -29 -25 -31 -24 -1 2 -16
41 -33 87 -24 64 -28 87 -19 98 9 11 14 11 28 -2 22 -20 34 -19 26 2 -4 9 -1
20 6 24 10 6 10 11 1 20 -10 10 -17 9 -31 -4 -17 -16 -20 -16 -32 -2 -7 8 -19
15 -26 15 -8 0 -33 19 -57 43 -23 23 -59 55 -80 71 -26 21 -37 37 -37 57 0 52
2 52 417 57 212 3 380 8 373 12 -12 8 -692 3 -745 -5 -19 -3 -37 -16 -50 -35
-20 -29 -57 -42 -85 -28 -8 4 -46 21 -85 38 -38 18 -97 45 -130 62 -66 33
-195 88 -208 88 -5 0 -23 6 -40 14 -33 15 -126 48 -252 90 -38 13 -105 32
-148 41 -43 9 -85 24 -93 32 -8 9 -36 16 -62 18 -26 1 -58 5 -72 9 -14 4 -72
17 -130 27 -129 24 -441 32 -447 12 -3 -7 -9 -13 -14 -13 -8 0 -60 -37 -124
-87 -11 -9 -54 -48 -95 -87 -109 -103 -170 -156 -180 -156 -5 0 -11 4 -15 9
-3 6 -59 10 -124 9 -65 0 -137 3 -159 7 -34 5 -42 4 -42 -8 0 -9 9 -19 20 -22
11 -3 20 -12 20 -20 0 -7 8 -15 18 -18 15 -4 15 -5 -2 -12 -13 -6 -21 -4 -24
3 -7 22 -77 13 -133 -18 -57 -31 -109 -39 -109 -17 0 7 5 18 10 23 14 14 -8
33 -41 36 -19 2 -24 -2 -25 -22 -1 -14 -2 -30 -3 -37 -2 -18 -83 -41 -89 -25
-2 6 -22 16 -44 22 -32 9 -44 8 -63 -4 -19 -13 -24 -13 -28 -2 -7 18 1 26 25
26 10 0 18 5 18 10 0 6 -13 10 -30 10 -23 0 -30 4 -30 20 0 21 -15 27 -25 10
-9 -14 -81 -50 -101 -50 -9 0 -18 8 -20 18 -3 9 -19 27 -37 39 -26 18 -43 21
-89 18 l-58 -5 0 30 c0 19 5 30 14 30 8 0 14 10 14 24 l0 24 -27 -24 c-27 -25
-51 -31 -51 -13 0 15 -26 39 -35 31 -3 -4 -13 2 -21 13 -14 19 -16 19 -28 2
-12 -15 -15 -15 -26 -2 -10 13 -9 15 8 15 12 0 24 5 27 10 3 6 2 10 -4 10 -5
0 -12 8 -15 18 -6 19 -43 38 -94 48 l-32 7 -2 191 c-2 105 -2 236 0 291 4 147
6 145 -78 145 l-70 0 6 -311z m5862 184 c2 -8 -5 -13 -17 -13 -21 0 -35 13
-24 24 10 10 36 3 41 -11z m-72 -62 c20 -2 23 -72 7 -160 -16 -87 -20 -130
-24 -256 l-2 -70 49 -5 49 -5 -68 -9 c-37 -4 -85 -5 -107 -1 -36 6 -40 10 -40
36 0 24 -4 29 -25 29 -20 0 -25 5 -25 25 0 17 -8 29 -25 37 -14 6 -25 17 -25
24 0 6 -7 14 -15 18 -18 7 -22 -39 -4 -50 9 -5 10 -76 5 -263 -4 -141 -8 -269
-9 -286 -2 -25 1 -29 18 -27 18 3 18 2 4 -10 -18 -14 -32 -146 -49 -458 -12
-243 -19 -323 -35 -445 -8 -60 -17 -189 -20 -285 -3 -96 -13 -218 -22 -270
-17 -93 -17 -94 -24 -50 -6 45 3 436 20 795 5 105 9 197 9 205 -1 44 15 550
22 705 5 99 12 257 15 350 4 94 11 178 17 188 6 12 6 42 -2 89 -12 67 -11 72
8 87 11 9 22 25 24 36 2 10 13 22 26 25 18 4 181 5 248 1z m514 -450 c0 -23
-16 -36 -25 -21 -9 14 1 40 15 40 5 0 10 -9 10 -19z m-706 -44 c-7 -18 -24
-23 -24 -8 0 22 13 42 22 33 5 -5 6 -16 2 -25z m723 -13 c-3 -3 -12 -4 -19 -1
-8 3 -5 6 6 6 11 1 17 -2 13 -5z m-225 -35 c2 -7 18 -12 36 -13 56 -2 30 -26
-29 -26 -21 0 -27 4 -23 15 4 8 1 15 -5 15 -6 0 -11 5 -11 10 0 14 27 13 32
-1z m128 -8 c0 -10 -30 -24 -37 -17 -3 3 -2 9 2 15 8 13 35 15 35 2z m-320
-10 c0 -9 -41 -23 -48 -16 -2 2 -1 8 3 14 8 13 45 15 45 2z m264 -46 c4 -11
-3 -19 -20 -25 -47 -18 -57 -10 -26 21 21 22 38 24 46 4z m1 -55 c3 -5 2 -10
-4 -10 -5 0 -13 5 -16 10 -3 6 -2 10 4 10 5 0 13 -4 16 -10z m-3705 -40 c0
-15 -26 -29 -39 -20 -21 12 -6 39 18 33 12 -3 21 -9 21 -13z m3698 4 c12 -8
22 -22 22 -30 0 -8 8 -14 18 -14 10 0 26 -6 35 -12 16 -12 13 -18 -28 -70 -24
-31 -53 -62 -64 -67 -17 -10 -20 -6 -31 38 -10 41 -9 54 4 79 10 20 12 32 4
40 -10 10 -2 52 10 52 4 0 18 -7 30 -16z m-4085 -9 c43 -7 129 -53 154 -82 21
-24 43 -80 43 -110 0 -10 29 -13 312 -28 l77 -4 11 37 c5 20 10 45 10 54 0 9
4 20 10 23 11 7 120 -97 120 -114 0 -10 -125 -102 -201 -149 l-37 -22 -51 43
c-80 69 -179 97 -361 104 -150 6 -316 -7 -425 -33 -111 -26 -155 -16 -155 33
0 38 24 75 77 119 72 60 117 84 212 115 83 26 112 28 204 14z m4324 -49 c-2
-5 -11 -14 -21 -20 -13 -9 -19 -7 -27 6 -5 10 -17 14 -29 11 -14 -4 -20 0 -20
12 0 13 6 16 24 11 15 -4 28 0 37 10 12 14 14 14 26 -2 7 -10 12 -23 10 -28z
m-5137 10 c0 -2 -7 -6 -15 -10 -8 -3 -15 -1 -15 4 0 6 7 10 15 10 8 0 15 -2
15 -4z m151 -266 c-42 -65 -110 -193 -135 -253 -3 -8 -8 -7 -15 3 -16 23 -14
33 28 96 21 32 55 86 76 119 52 81 87 127 93 121 2 -3 -19 -41 -47 -86z m2549
60 c0 -5 -4 -10 -9 -10 -6 0 -13 5 -16 10 -3 6 1 10 9 10 9 0 16 -4 16 -10z
m223 -221 c-2 -8 13 -30 32 -49 39 -37 47 -84 19 -104 -13 -10 -14 -19 -5 -52
21 -76 4 -90 -29 -24 -14 27 -27 40 -41 40 -18 0 -20 4 -14 30 6 26 4 30 -14
30 -27 0 -26 13 4 57 18 27 22 40 14 50 -6 7 -8 20 -5 29 7 20 42 14 39 -7z
m-1962 -104 c57 -17 70 -61 26 -84 -37 -19 -168 -49 -269 -62 l-96 -12 -32 26
c-40 34 -68 41 -139 34 -63 -5 -107 -24 -161 -68 -19 -16 -39 -29 -45 -29 -6
0 -28 18 -49 39 -33 34 -36 40 -20 44 11 3 64 20 119 36 145 45 226 62 350 75
119 12 278 13 316 1z m2380 -168 c-10 -9 -11 -8 -5 6 3 10 9 15 12 12 3 -3 0
-11 -7 -18z m-2581 -134 c0 -13 -186 -193 -200 -193 -13 0 -130 117 -130 130
0 4 33 13 73 19 39 6 106 19 147 30 85 21 110 24 110 14z m2578 -40 c-2 -10
-14 -20 -28 -22 -25 -3 -25 -3 -6 18 23 26 39 27 34 4z m19 -79 c-3 -3 -13 0
-21 9 -8 8 -12 18 -9 21 4 4 14 0 22 -9 8 -8 12 -17 8 -21z m-29 -6 c8 -8 12
-67 12 -199 0 -198 -2 -206 -49 -211 -21 -3 -26 7 -56 97 -33 101 -60 165 -95
220 -10 17 -19 40 -19 53 -1 12 -5 22 -10 22 -5 0 -11 7 -15 15 -5 13 11 15
107 15 75 0 117 -4 125 -12z m1239 -350 c-16 -10 -37 2 -37 21 0 29 11 32 30
8 12 -14 15 -24 7 -29z m-1204 -70 c3 -8 -5 -14 -20 -14 -19 -2 -22 1 -12 12
14 17 25 18 32 2z m735 -194 c-4 -123 -9 -199 -16 -206 -8 -8 -8 -15 -1 -24 7
-9 2 -16 -18 -26 -15 -8 -38 -21 -51 -29 -37 -23 -56 -2 -64 72 -3 35 -9 85
-13 110 -5 30 -3 49 3 53 15 9 34 -29 32 -62 -4 -49 -1 -57 12 -44 19 19 28
14 28 -18 0 -38 8 -37 40 3 21 27 25 42 26 107 1 95 15 260 22 260 2 0 2 -88
0 -196z m-683 166 c3 -6 -1 -7 -9 -4 -18 7 -21 14 -7 14 6 0 13 -4 16 -10z
m385 -40 c0 -5 -4 -10 -10 -10 -5 0 -10 5 -10 10 0 6 5 10 10 10 6 0 10 -4 10
-10z m-411 -93 c71 -36 72 -46 15 -121 -46 -62 -72 -77 -82 -48 -2 6 3 12 12
12 9 0 34 23 57 52 38 49 40 53 22 65 -10 8 -39 22 -65 31 -27 9 -48 20 -48
24 0 15 46 8 89 -15z m406 -87 c-4 -11 0 -29 9 -42 20 -28 20 -47 0 -86 -15
-32 -28 -37 -58 -26 -24 9 -19 30 10 53 25 20 26 22 10 39 -27 31 -18 82 16
82 15 0 18 -5 13 -20z m-250 -162 c4 -27 11 -48 16 -48 5 0 9 -4 9 -10 0 -5
-9 -10 -20 -10 -16 0 -20 7 -20 36 0 44 -19 122 -32 130 -26 16 -118 -118
-121 -175 -1 -40 -10 -53 -20 -28 -2 6 -1 21 4 32 4 11 8 32 8 46 1 16 24 52
63 99 l62 74 22 -50 c12 -27 25 -70 29 -96z m1396 22 c11 0 12 -90 2 -247 l-6
-113 -46 -21 c-25 -12 -56 -31 -68 -42 -17 -15 -30 -18 -57 -13 -25 5 -43 2
-61 -10 -24 -16 -25 -16 -25 9 0 13 -7 30 -15 37 -11 10 -15 30 -13 83 3 67 5
72 28 77 21 5 24 11 22 36 -5 46 24 104 52 104 12 0 31 9 42 21 10 11 26 18
36 16 12 -3 22 3 29 16 19 37 42 58 57 52 7 -3 18 -5 23 -5z m95 -15 c9 -36
-9 -265 -21 -265 -5 0 -9 19 -9 43 1 23 2 88 3 145 1 98 13 132 27 77z m-1536
-79 c0 -2 -7 -6 -15 -10 -8 -3 -15 -1 -15 4 0 6 7 10 15 10 8 0 15 -2 15 -4z
m482 -66 c3 -20 0 -30 -9 -30 -8 0 -13 12 -13 30 0 17 4 30 9 30 5 0 11 -13
13 -30z m-594 -72 c104 -76 173 -140 188 -176 14 -33 140 -231 154 -242 10 -8
20 -40 12 -40 -11 0 -34 16 -33 24 2 25 -40 76 -73 89 -9 4 -16 11 -16 17 0 6
5 8 12 4 7 -4 8 -3 4 4 -4 7 -13 12 -21 12 -7 0 -15 7 -19 15 -3 8 -12 15 -21
15 -17 0 -20 16 -5 25 18 11 11 20 -16 22 -15 0 -29 5 -33 10 -8 11 -61 14
-61 2 0 -5 -7 -9 -16 -9 -9 0 -14 -6 -11 -13 3 -7 -1 -21 -9 -32 -13 -17 -16
-17 -13 1 0 4 -5 11 -13 15 -11 7 -10 11 2 19 12 7 12 12 3 21 -9 9 -16 9 -28
-1 -13 -11 -15 -9 -15 9 0 12 -4 19 -10 16 -5 -3 -10 -19 -10 -35 0 -16 -4
-31 -9 -35 -6 -3 -10 37 -10 98 -1 57 -3 127 -7 155 -3 35 -2 52 6 52 6 0 37
-19 68 -42z m1684 -135 c-2 -49 -7 -99 -11 -113 -5 -14 -9 -38 -10 -54 -2 -40
-8 -43 -22 -12 -7 14 -18 26 -26 26 -11 0 -13 18 -11 82 3 79 4 83 31 96 18 9
27 21 27 38 0 13 6 24 13 24 9 0 11 -23 9 -87z m-1021 50 c7 -18 6 -30 -1 -37
-14 -14 -30 9 -30 42 0 30 18 28 31 -5z m629 -173 c0 -12 -28 -25 -36 -17 -9
9 6 27 22 27 8 0 14 -5 14 -10z m334 -155 c-2 -16 2 -35 7 -42 14 -16 17 -161
7 -349 -4 -82 -8 -171 -9 -197 -3 -57 -16 -71 -23 -25 -14 82 -27 150 -46 241
-18 86 -20 118 -14 260 4 89 11 168 16 174 8 10 17 8 38 -10 21 -17 27 -29 24
-52z m-544 57 c0 -12 -28 -48 -33 -42 -8 8 11 50 23 50 5 0 10 -4 10 -8z
m-966 -126 c56 -23 95 -98 111 -208 6 -48 0 -59 -22 -37 -9 9 -9 16 0 30 9 14
9 21 -1 31 -6 6 -12 22 -12 34 0 13 -10 35 -23 50 l-23 26 -39 -21 c-22 -11
-44 -21 -50 -21 -5 0 -34 -24 -64 -53 -51 -50 -56 -52 -71 -37 -11 11 -15 27
-12 48 4 27 1 32 -16 32 -12 0 -22 -9 -25 -21 -5 -20 -27 -19 -27 2 0 15 111
124 145 142 37 20 85 21 129 3z m286 5 c0 -15 -38 -20 -44 -5 -4 10 2 14 19
14 14 0 25 -4 25 -9z m370 -31 c0 -5 -4 -10 -9 -10 -6 0 -13 5 -16 10 -3 6 1
10 9 10 9 0 16 -4 16 -10z m516 -244 c-10 -176 -17 -260 -22 -265 -6 -7 -5
365 2 383 3 9 11 13 16 10 6 -4 8 -51 4 -128z m-749 84 c8 0 13 -7 11 -17 -2
-10 4 -34 13 -53 13 -27 15 -38 6 -49 -7 -8 -11 -17 -9 -20 2 -3 -11 -9 -28
-12 -33 -7 -52 8 -29 22 8 5 9 9 3 9 -6 0 -16 11 -22 25 -10 21 -9 25 3 25 8
0 15 5 15 10 0 6 -9 10 -19 10 -11 0 -23 5 -26 10 -3 6 4 10 17 10 18 0 20 2
8 10 -12 8 -11 10 8 10 14 0 22 6 23 18 0 10 3 12 6 5 2 -7 11 -13 20 -13z
m-317 -124 c-10 -5 -21 -18 -23 -30 -3 -13 -5 -9 -6 12 -1 42 18 66 36 43 10
-13 8 -18 -7 -25z m-982 -85 c3 -8 -1 -12 -9 -9 -7 2 -15 10 -17 17 -3 8 1 12
9 9 7 -2 15 -10 17 -17z m1232 9 c0 -5 -5 -10 -11 -10 -5 0 -7 5 -4 10 3 6 8
10 11 10 2 0 4 -4 4 -10z m-1260 -31 c0 -7 9 -9 21 -6 15 4 19 2 15 -9 -4 -11
0 -14 17 -12 17 2 21 -1 19 -16 -3 -18 -2 -18 13 -6 14 12 18 12 25 0 5 -9 5
-17 -1 -20 -16 -10 -5 -54 14 -63 11 -4 21 -16 24 -27 3 -11 12 -20 19 -20 8
0 14 -4 14 -10 0 -5 -7 -7 -15 -4 -9 4 -15 0 -15 -9 0 -8 7 -18 16 -21 8 -3
14 -14 12 -23 -1 -10 0 -22 4 -28 8 -13 -9 -55 -22 -55 -5 0 -10 -5 -10 -10 0
-6 12 -8 28 -4 15 3 22 2 16 -3 -6 -4 -11 -26 -11 -47 l-1 -39 15 31 c15 31
33 35 33 7 0 -9 -6 -12 -15 -9 -8 4 -15 2 -15 -4 0 -6 5 -12 11 -14 7 -2 7
-12 -1 -33 -9 -24 -8 -31 5 -41 9 -7 13 -18 9 -28 -4 -11 -2 -15 7 -11 11 4
14 -8 14 -55 0 -36 -4 -59 -10 -57 -13 3 -16 -8 -8 -30 4 -9 1 -19 -5 -21 -15
-5 -16 -29 -2 -34 6 -2 -1 -15 -14 -29 -19 -21 -22 -29 -13 -39 9 -10 9 -14 0
-17 -19 -7 -16 -33 4 -33 14 0 13 -3 -5 -23 -12 -13 -22 -29 -22 -35 0 -7 -10
-13 -22 -13 l-23 -2 23 -4 c12 -2 22 -8 22 -13 0 -5 -10 -17 -22 -27 -22 -17
-27 -32 -31 -76 -1 -10 -7 -15 -13 -13 -24 9 -23 -7 1 -26 32 -25 33 -40 2
-29 -24 9 -77 4 -77 -8 0 -4 6 -13 12 -19 10 -10 10 -15 -2 -23 -8 -5 -23 -7
-32 -5 -9 2 -24 -5 -34 -15 -14 -15 -14 -21 -4 -34 7 -8 16 -12 21 -9 5 3 9 1
9 -5 0 -5 3 -16 6 -25 4 -12 0 -14 -20 -10 -19 3 -26 0 -26 -11 0 -8 5 -15 10
-15 6 0 10 -11 10 -24 0 -27 24 -53 35 -36 11 18 23 11 18 -11 -3 -12 -11 -18
-19 -15 -8 3 -14 2 -14 -2 0 -4 -3 -17 -6 -29 -4 -14 -2 -23 5 -23 6 0 11 6
11 13 1 19 38 59 50 52 6 -3 7 -12 3 -18 -11 -17 -10 -31 2 -40 6 -5 4 -12 -7
-21 -10 -7 -18 -22 -18 -32 0 -16 2 -17 10 -4 8 12 10 11 10 -7 0 -13 -5 -23
-10 -23 -6 0 -15 10 -20 23 -6 16 -9 18 -9 5 -1 -10 -12 -20 -26 -24 -16 -4
-24 -12 -23 -22 2 -11 -9 -21 -32 -28 -19 -7 -34 -17 -33 -23 2 -6 -4 -11 -12
-11 -8 0 -15 -7 -15 -15 0 -9 6 -12 16 -8 12 4 14 0 8 -21 -4 -18 -2 -26 7
-26 10 -1 9 -4 -3 -14 -15 -11 -16 -15 -2 -41 8 -16 12 -34 10 -42 -3 -7 2
-17 12 -22 20 -11 11 -24 -11 -15 -9 3 -17 18 -19 32 -4 35 -35 36 -57 2 -9
-13 -11 -21 -5 -17 14 8 64 -29 64 -48 0 -11 -6 -11 -30 -2 -16 6 -30 15 -30
19 0 4 -6 8 -14 8 -15 0 -30 45 -21 60 3 5 12 7 19 4 9 -3 17 3 21 16 5 16 13
20 27 17 14 -4 18 -2 14 10 -3 8 -6 19 -6 24 0 5 -4 9 -10 9 -5 0 -6 -8 -3
-17 6 -17 6 -17 -10 -1 -9 9 -17 21 -17 26 0 14 -29 24 -43 15 -7 -4 -7 0 1 9
10 13 11 22 2 38 -11 20 -13 21 -30 5 -14 -13 -28 -15 -59 -10 -37 6 -40 9
-30 27 17 33 19 76 4 82 -8 3 -19 -2 -24 -11 -8 -14 -13 -15 -35 -5 -22 10
-26 9 -26 -3 0 -8 -5 -15 -11 -15 -6 0 -9 7 -5 15 3 9 0 15 -9 15 -8 0 -15 -4
-15 -8 0 -5 -11 -15 -25 -22 -16 -8 -25 -22 -25 -37 0 -14 -6 -23 -15 -23 -8
0 -25 -10 -37 -22 -13 -13 -23 -17 -26 -10 -2 6 -9 9 -17 6 -9 -4 -15 7 -20
35 -4 26 -12 41 -21 41 -9 0 -12 -4 -9 -10 3 -5 -3 -10 -15 -10 -22 0 -50 21
-50 38 0 5 -17 12 -37 15 -42 7 -86 34 -78 47 3 4 -6 7 -20 6 -13 -2 -22 1
-19 6 3 5 -3 12 -15 15 -12 3 -21 9 -21 14 0 5 -6 9 -12 9 -7 0 -20 15 -29 33
-13 27 -21 31 -45 29 -16 -2 -41 1 -54 7 -14 5 -19 10 -12 10 24 2 12 21 -13
21 -14 0 -25 5 -25 10 0 6 -6 10 -14 10 -7 0 -19 7 -26 15 -7 8 -21 15 -31 15
-12 0 -16 5 -13 15 5 11 -1 15 -20 15 -15 0 -29 7 -33 16 -3 8 -12 13 -19 10
-9 -3 -16 4 -20 19 -7 29 -11 30 -35 9 -16 -15 -20 -14 -46 10 -31 29 -68 29
-90 -1 -12 -15 -13 -15 -13 5 0 12 -4 22 -10 22 -5 0 -10 7 -10 15 0 8 -4 15
-10 15 -5 0 -10 -9 -10 -21 0 -11 -4 -18 -9 -14 -13 7 -34 -32 -25 -46 8 -13
-15 -71 -33 -82 -19 -12 -16 -35 6 -47 16 -8 23 -6 35 12 9 12 16 17 16 10 0
-6 9 -12 21 -12 11 0 17 5 14 10 -3 6 3 10 14 10 12 0 21 4 21 9 0 4 15 12 33
18 24 7 31 14 29 30 -3 23 22 34 53 22 11 -4 14 -8 7 -8 -10 -1 -10 -5 0 -23
7 -13 14 -30 15 -38 2 -8 7 -37 12 -65 7 -39 6 -55 -6 -73 -13 -22 -20 -23
-71 -18 -94 9 -243 13 -231 6 13 -8 -16 -23 -46 -24 -12 -1 -19 -7 -17 -16 2
-8 1 -12 -3 -8 -4 4 -16 -1 -26 -11 -14 -13 -33 -17 -72 -16 -28 1 -56 -1 -62
-5 -17 -13 -75 -8 -75 7 0 7 -3 12 -7 11 -5 -2 -9 1 -10 5 -1 5 -8 14 -16 20
-18 15 -32 127 -16 127 6 0 8 8 4 20 -4 13 1 34 14 55 11 19 23 51 27 72 6 34
47 103 67 111 4 2 -3 18 -15 35 -19 27 -20 30 -4 24 16 -6 18 -3 13 23 -5 22
-3 30 7 30 8 0 17 7 20 16 3 8 10 13 15 9 5 -3 13 0 17 7 4 7 4 10 -1 6 -13
-12 -35 12 -35 38 0 15 -6 24 -15 24 -8 0 -15 7 -15 16 0 12 6 15 21 11 18 -5
20 -2 15 19 -4 13 -3 24 1 24 5 0 8 14 9 30 1 25 -2 29 -17 25 -9 -3 -21 0
-25 6 -5 9 -2 10 9 6 9 -3 19 -2 22 4 12 19 16 62 6 69 -7 4 -8 17 -2 38 5 17
7 40 4 52 -3 11 0 20 6 20 6 0 11 8 11 19 0 20 36 35 46 19 4 -6 10 -5 15 3 6
10 13 7 29 -13 17 -23 26 -26 57 -21 l36 6 -6 -41 c-5 -25 -3 -43 4 -47 6 -5
4 -12 -8 -21 -12 -9 -13 -13 -5 -14 20 0 44 -27 32 -35 -6 -4 -8 -15 -5 -25 4
-12 -1 -22 -12 -29 -14 -8 -15 -10 -3 -11 14 0 16 -41 9 -188 -2 -30 7 -38 25
-23 10 8 16 9 21 1 3 -5 -1 -10 -9 -10 -18 0 -19 -2 -10 -24 7 -18 34 -10 34
11 0 8 5 11 10 8 6 -4 8 -11 5 -16 -4 -5 0 -9 9 -9 8 0 17 6 19 13 3 6 6 2 6
-10 1 -16 7 -23 22 -23 14 0 18 4 12 13 -15 23 -11 37 10 38 12 0 16 3 9 6
-16 6 -5 23 15 23 10 0 14 -6 10 -20 -3 -13 0 -20 10 -20 11 0 14 7 9 25 -4
14 -2 25 4 25 5 0 10 5 10 10 0 6 -6 10 -14 10 -32 0 -35 65 -3 75 l22 8 -22
4 c-23 4 -33 23 -13 23 6 0 10 6 10 14 0 23 19 29 36 11 10 -10 24 -13 37 -9
15 5 19 3 14 -9 -3 -9 1 -18 8 -21 11 -4 13 -18 9 -56 -3 -33 -1 -50 7 -50 6
0 13 9 16 20 3 11 9 18 13 15 5 -3 15 -2 24 1 20 8 21 40 2 47 -7 3 -13 16
-13 29 0 21 4 24 43 26 24 1 45 -2 48 -7 3 -5 17 -7 30 -6 17 2 27 -3 31 -15
6 -19 42 -34 47 -19 2 5 28 2 57 -6 30 -8 60 -11 65 -7 6 5 23 8 39 7 15 0 27
4 27 10 0 6 16 17 35 25 19 7 32 16 30 20 -7 11 43 30 80 30 19 0 35 5 35 10
0 6 8 5 20 -2 17 -11 22 -10 29 1 5 8 16 11 30 6 12 -4 21 -2 21 4 0 6 -7 11
-16 11 -13 0 -14 3 -4 14 6 8 19 12 28 8 15 -5 15 -4 0 12 -10 9 -22 14 -28
11 -5 -3 -10 -2 -10 3 0 18 34 24 46 8 6 -9 14 -13 17 -10 4 4 18 8 32 10 14
1 33 8 42 16 12 9 15 9 9 1 -4 -7 -2 -13 3 -13 6 0 11 7 11 15 0 8 7 15 15 15
8 0 15 7 15 15 0 8 5 15 10 15 6 0 10 -4 10 -9 0 -13 25 -20 49 -14 14 3 18
10 13 17 -4 6 -13 22 -19 37 -10 24 -9 25 25 25 20 0 37 5 40 12 4 14 42 16
42 2 0 -5 5 -10 11 -10 6 0 8 8 4 19 -10 33 15 61 56 61 42 0 105 38 103 63
-1 9 2 14 7 12 14 -9 33 35 20 48 -13 13 -15 41 -3 33 5 -3 6 9 4 26 -3 21 -7
26 -13 17 -7 -11 -9 -11 -9 -1 0 7 -4 10 -10 7 -5 -3 -10 -1 -10 4 0 6 6 11
13 11 7 0 13 9 14 20 1 11 12 33 23 48 l22 27 -22 3 c-28 5 -39 -6 -20 -18 13
-8 12 -10 -2 -10 -23 0 -23 19 -1 65 13 27 21 34 36 29 19 -6 19 -5 3 17 -18
26 -22 69 -6 69 6 0 10 -5 10 -11z m1270 -13 c0 -3 -4 -8 -10 -11 -5 -3 -10
-1 -10 4 0 6 5 11 10 11 6 0 10 -2 10 -4z m520 0 c0 -3 -4 -8 -10 -11 -5 -3
-10 -1 -10 4 0 6 5 11 10 11 6 0 10 -2 10 -4z m-510 -36 c0 -5 -5 -10 -11 -10
-5 0 -7 5 -4 10 3 6 8 10 11 10 2 0 4 -4 4 -10z m-283 -31 c1 -19 -5 -30 -23
-39 -20 -11 -22 -15 -10 -22 13 -7 12 -13 -5 -43 -12 -19 -25 -32 -30 -29 -5
3 -9 1 -9 -5 0 -5 5 -11 11 -13 7 -2 8 -11 1 -28 -25 -64 -59 -331 -47 -369 3
-10 -2 -35 -10 -56 -9 -20 -14 -44 -11 -51 3 -8 1 -14 -5 -14 -6 0 -8 -4 -4
-9 3 -5 1 -12 -5 -16 -5 -3 -10 -19 -10 -34 0 -15 -11 -49 -25 -75 -14 -26
-23 -52 -20 -57 4 -5 1 -9 -4 -9 -6 0 -11 -7 -11 -15 0 -8 -9 -20 -20 -27 -11
-7 -20 -18 -20 -24 0 -15 -28 -26 -43 -17 -6 4 -8 0 -4 -10 8 -20 8 -20 -31
-6 -24 8 -38 7 -64 -4 -43 -20 -88 -27 -88 -15 0 6 -7 8 -15 4 -8 -3 -16 0
-17 7 0 7 -2 17 -2 22 -3 21 -17 34 -31 28 -11 -4 -13 -1 -8 13 4 12 3 15 -5
10 -8 -4 -12 0 -12 11 0 29 12 40 53 47 20 4 37 12 38 19 0 9 2 9 6 0 7 -18
23 -16 23 2 0 8 -5 15 -12 15 -6 0 -9 3 -6 6 7 6 -39 54 -52 54 -6 0 -10 4
-10 9 0 5 6 9 13 8 51 -2 64 5 87 43 14 22 29 40 33 40 5 0 6 4 3 9 -4 5 -1
22 6 38 6 15 11 31 10 36 -1 4 17 7 41 7 30 0 48 6 59 19 9 11 13 22 10 26 -4
3 0 10 7 15 10 6 14 32 15 87 1 71 3 78 21 78 23 0 50 -48 38 -68 -4 -6 -8
-23 -9 -37 -1 -14 -3 -27 -4 -30 -2 -3 -4 -9 -5 -15 -1 -5 -5 -17 -8 -25 -3
-8 -8 -22 -10 -30 -4 -9 -6 -6 -6 8 -1 20 -20 33 -22 15 -5 -60 -9 -78 -18
-81 -15 -5 -14 -62 0 -62 26 0 81 84 99 150 16 56 19 80 22 153 1 47 5 57 19
57 14 0 17 7 14 30 -5 44 6 100 19 100 7 0 12 18 13 44 1 25 7 55 14 68 7 13
13 28 14 33 2 30 17 50 37 50 18 0 23 -6 25 -26z m-4181 -34 c0 -45 -3 -55
-17 -55 -17 0 -29 19 -29 46 0 16 29 64 39 64 3 0 6 -25 7 -55z m5170 -14 c-8
-13 -36 -15 -36 -3 0 4 5 13 12 20 14 14 34 0 24 -17z m-707 -3 c0 -21 -1 -21
-8 -4 -6 16 -9 17 -16 6 -5 -8 -4 -15 2 -17 6 -2 19 -10 29 -18 12 -9 13 -13
4 -10 -19 6 -42 -39 -28 -53 6 -6 5 -17 -4 -31 -9 -14 -10 -24 -3 -29 6 -4 10
-17 9 -29 -1 -13 3 -23 8 -23 5 0 6 -5 2 -11 -3 -6 0 -15 7 -20 11 -7 11 -11
2 -17 -10 -6 -10 -22 -3 -67 5 -33 7 -67 5 -76 -3 -9 2 -22 10 -29 13 -11 13
-15 3 -22 -10 -6 -10 -10 2 -18 13 -8 13 -10 -2 -10 -13 0 -17 -8 -15 -30 1
-16 5 -30 10 -30 4 0 7 -5 7 -11 0 -5 -4 -7 -10 -4 -6 3 -10 -4 -10 -17 0 -18
2 -20 10 -8 5 8 12 11 15 8 10 -10 -4 -28 -21 -28 -8 0 -14 5 -14 11 0 5 -5 7
-10 4 -6 -4 -7 -11 -4 -17 4 -6 1 -9 -5 -7 -7 3 -12 8 -12 12 2 12 -23 35 -33
30 -4 -3 -5 4 -2 15 4 13 0 31 -10 46 -9 14 -14 32 -11 39 3 8 1 20 -3 28 -5
7 -5 18 1 25 12 14 -5 29 -21 19 -10 -6 -14 6 -11 37 1 10 -2 33 -8 53 -8 29
-7 35 5 35 9 0 13 4 10 8 -3 5 -6 28 -8 51 -1 24 -7 45 -13 47 -10 4 -12 80
-2 90 3 3 4 11 1 18 -6 17 91 70 139 75 4 1 7 -9 6 -21z m778 -200 c-4 -105
-9 -194 -12 -197 -24 -23 -28 92 -11 302 5 65 11 87 23 87 3 0 3 -86 0 -192z
m-1292 132 c3 -5 1 -10 -4 -10 -6 0 -11 5 -11 10 0 6 2 10 4 10 3 0 8 -4 11
-10z m15 -122 c4 -21 5 -38 1 -38 -8 0 -31 74 -31 97 1 16 2 16 12 -2 6 -11
15 -36 18 -57z m-560 31 c0 -6 -4 -7 -10 -4 -5 3 -10 11 -10 16 0 6 5 7 10 4
6 -3 10 -11 10 -16z m1760 -9 c0 -11 -7 -20 -15 -20 -15 0 -21 21 -8 33 12 13
23 7 23 -13z m756 -152 c-4 -79 -9 -161 -11 -183 -2 -22 -6 -96 -10 -165 -6
-116 -15 -154 -31 -137 -7 7 10 288 27 447 5 47 9 106 9 133 0 28 4 47 11 47
9 0 10 -38 5 -142z m-1981 93 c-3 -6 -11 -8 -17 -5 -6 4 -5 9 3 15 16 10 23 4
14 -10z m855 -50 c0 -33 -4 -40 -25 -45 -28 -7 -75 2 -75 14 0 4 16 15 35 24
19 9 35 23 35 31 0 8 7 15 15 15 11 0 15 -11 15 -39z m-3300 -25 c0 -3 -4 -8
-10 -11 -5 -3 -10 -1 -10 4 0 6 5 11 10 11 6 0 10 -2 10 -4z m-23 -32 c-3 -3
-12 -4 -19 -1 -8 3 -5 6 6 6 11 1 17 -2 13 -5z m1963 2 c0 -3 -4 -8 -10 -11
-5 -3 -10 -1 -10 4 0 6 5 11 10 11 6 0 10 -2 10 -4z m1726 -25 c-8 -13 -36
-15 -36 -3 0 4 5 13 12 20 14 14 34 0 24 -17z m-563 7 c12 -7 47 -12 77 -13
35 -1 70 -9 97 -23 27 -14 44 -18 48 -11 8 13 35 -8 35 -27 0 -18 -60 -13 -83
7 -13 12 -31 15 -70 12 -67 -6 -77 -9 -77 -27 0 -10 10 -14 32 -14 18 1 34 -4
36 -10 5 -16 27 -15 52 1 17 10 22 9 29 -2 19 -31 2 -40 -69 -35 l-69 5 2 -38
c3 -73 -3 -144 -12 -139 -5 3 -12 32 -16 63 -3 32 -15 100 -26 152 -25 125
-26 121 14 99z m-3033 -2 c0 -3 -4 -8 -10 -11 -5 -3 -10 -1 -10 4 0 6 5 11 10
11 6 0 10 -2 10 -4z m-1444 -53 c-7 -7 -26 7 -26 19 0 6 6 6 15 -2 9 -7 13
-15 11 -17z m3601 11 c-3 -4 2 -14 13 -23 31 -26 29 -91 -3 -91 -8 0 -8 3 1
12 15 15 16 32 2 23 -11 -7 -15 3 -24 53 -4 20 -1 32 6 32 6 0 9 -3 5 -6z
m1473 -106 c0 -79 -7 -118 -21 -118 -5 0 -9 12 -9 26 0 17 -6 28 -20 31 -11 3
-20 11 -20 18 0 6 9 20 20 30 22 20 26 50 9 61 -8 4 -7 9 2 15 33 20 39 10 39
-63z m-501 -120 c12 -16 11 -18 -13 -18 -27 0 -37 24 -13 33 6 2 12 4 12 3 1
0 7 -9 14 -18z m-2696 -15 c-7 -2 -21 -2 -30 0 -10 3 -4 5 12 5 17 0 24 -2 18
-5z m1590 -13 c-3 -11 -9 -20 -13 -20 -5 0 -6 9 -3 20 3 11 9 20 13 20 5 0 6
-9 3 -20z m887 -10 c0 -14 -5 -18 -17 -13 -11 4 -14 3 -9 -5 4 -7 1 -12 -9
-12 -10 0 -13 5 -9 13 24 41 44 49 44 17z m-900 -85 c-8 -40 -8 -40 -9 15 0
35 3 50 8 40 5 -8 5 -33 1 -55z m1580 31 c0 -18 -17 -29 -30 -21 -8 5 -7 11 1
21 15 18 29 18 29 0z m-3215 -5 c3 -5 1 -12 -5 -16 -5 -3 -10 1 -10 9 0 18 6
21 15 7z m4012 -33 c-3 -8 -6 -5 -6 6 -1 11 2 17 5 13 3 -3 4 -12 1 -19z
m-743 -23 c4 -20 4 -45 1 -56 -4 -11 -1 -26 5 -34 9 -11 7 -16 -7 -24 -33 -17
-44 0 -34 54 5 28 7 53 5 56 -6 10 6 39 16 39 4 0 11 -16 14 -35z m-559 -120
c-24 -30 -45 -45 -45 -31 0 20 23 163 27 170 3 4 14 -17 25 -48 l19 -56 -26
-35z m-3005 115 c0 -5 -4 -10 -10 -10 -5 0 -10 5 -10 10 0 6 5 10 10 10 6 0
10 -4 10 -10z m1925 -50 c-4 -12 -9 -19 -12 -17 -3 3 -2 15 2 27 4 12 9 19 12
17 3 -3 2 -15 -2 -27z m-2495 4 c0 -8 -5 -12 -10 -9 -6 4 -8 11 -5 16 9 14 15
11 15 -7z m4797 -51 c-3 -10 -5 -2 -5 17 0 19 2 27 5 18 2 -10 2 -26 0 -35z
m-949 15 c-2 -6 -10 -14 -16 -16 -7 -2 -10 2 -6 12 7 18 28 22 22 4z m-3868
-12 c0 -11 -19 -15 -25 -6 -3 5 1 10 9 10 9 0 16 -2 16 -4z m-46 -29 c-1 -13
3 -16 16 -12 16 5 18 1 16 -22 -2 -18 -9 -27 -18 -25 -9 1 -22 -6 -29 -15 -13
-16 -12 -17 4 -4 16 13 17 11 12 -23 -6 -31 -4 -36 14 -36 15 0 19 4 14 17 -5
12 -2 15 10 10 18 -7 33 8 17 18 -5 3 -10 12 -10 18 1 18 40 -33 40 -52 0 -12
10 -17 31 -19 55 -4 59 -18 21 -66 -12 -16 -22 -34 -22 -41 0 -7 -7 -15 -15
-19 -8 -3 -15 -12 -15 -21 0 -10 -7 -14 -21 -12 -14 2 -32 -7 -49 -25 -15 -15
-32 -28 -38 -28 -6 0 -23 -13 -39 -30 -17 -19 -38 -30 -54 -30 -19 0 -26 -5
-25 -17 0 -10 -7 -19 -18 -21 -22 -5 -55 -40 -56 -59 0 -7 -11 -13 -25 -13
-20 0 -27 6 -31 28 -5 23 -11 27 -37 27 -18 0 -37 -3 -42 -7 -6 -3 -26 -3 -45
1 -26 5 -36 13 -38 29 -2 12 -9 22 -17 22 -12 0 -21 13 -24 35 0 5 7 10 16 10
9 0 18 6 20 13 3 6 -2 12 -11 12 -20 0 -21 15 -2 32 12 11 11 17 -5 40 -12 17
-16 29 -9 33 6 4 8 11 4 16 -3 5 -10 7 -15 4 -5 -4 -9 -1 -9 5 0 7 9 14 20 17
15 4 20 14 20 39 0 24 5 34 15 34 8 0 15 -4 15 -10 0 -5 5 -10 10 -10 6 0 10
9 10 20 0 18 20 26 53 21 4 0 7 4 7 10 0 6 9 9 19 6 11 -2 33 4 50 14 41 25
47 24 27 -6 -18 -28 -21 -44 -5 -28 6 6 18 9 25 6 8 -3 15 0 15 6 1 6 2 17 3
24 1 6 8 11 15 9 8 -2 20 6 27 16 8 12 31 22 56 26 49 8 83 29 73 46 -5 8 -1
11 11 8 11 -2 18 -11 18 -21z m4136 -3 c0 -8 -7 -14 -15 -14 -15 0 -21 21 -9
33 10 9 24 -2 24 -19z m-1783 0 c-3 -3 -12 -4 -19 -1 -8 3 -5 6 6 6 11 1 17
-2 13 -5z m1834 -41 c-10 -17 -10 -16 -11 3 0 23 13 41 18 25 2 -6 -1 -18 -7
-28z m-4894 -5 c-3 -8 -6 -5 -6 6 -1 11 2 17 5 13 3 -3 4 -12 1 -19z m4381
-32 c-2 -25 -8 -32 -30 -34 -33 -4 -32 -5 -13 41 19 46 48 41 43 -7z m-73 12
c-10 -31 -25 -47 -25 -26 0 24 11 48 22 48 5 0 6 -10 3 -22z m-3980 -18 c3 -5
2 -10 -4 -10 -5 0 -13 5 -16 10 -3 6 -2 10 4 10 5 0 13 -4 16 -10z m5165 -29
c0 -4 -7 -8 -15 -8 -16 0 -20 9 -9 20 8 8 24 -1 24 -12z m5 -31 c3 -5 1 -10
-4 -10 -6 0 -11 5 -11 10 0 6 2 10 4 10 3 0 8 -4 11 -10z m-2580 -20 c3 -5 1
-10 -4 -10 -6 0 -11 5 -11 10 0 6 2 10 4 10 3 0 8 -4 11 -10z m1925 -4 c0 -8
-4 -17 -9 -21 -12 -7 -24 12 -16 25 9 15 25 12 25 -4z m-660 -34 c0 -30 -29
-131 -47 -165 -9 -18 -17 -35 -18 -39 0 -4 -8 -17 -17 -28 -10 -11 -18 -31
-18 -45 0 -13 -4 -27 -10 -30 -5 -3 -10 -15 -10 -25 0 -10 -5 -31 -12 -47 -14
-36 -17 -48 -24 -103 -3 -25 -8 -47 -10 -49 -5 -6 -94 89 -94 100 0 5 -9 18
-19 28 -20 20 -20 20 0 62 15 30 18 44 10 52 -6 6 -11 17 -11 24 0 19 32 53
50 53 12 1 12 3 -2 14 -10 7 -18 21 -18 31 0 13 -6 16 -25 13 -23 -5 -25 -2
-25 34 0 21 -5 47 -12 58 -7 10 -10 22 -7 25 12 11 217 53 267 54 44 1 52 -2
52 -17z m-1240 -32 c0 -5 -2 -10 -4 -10 -3 0 -8 5 -11 10 -3 6 -1 10 4 10 6 0
11 -4 11 -10z m34 -9 c3 -5 -1 -12 -10 -15 -27 -10 -35 -7 -22 9 15 17 25 19
32 6z m2513 -53 c-2 -13 -4 -5 -4 17 -1 22 1 32 4 23 2 -10 2 -28 0 -40z m-30
10 c-3 -7 -5 -2 -5 12 0 14 2 19 5 13 2 -7 2 -19 0 -25z m-5637 -12 c0 -3 -4
-8 -10 -11 -5 -3 -10 -1 -10 4 0 6 5 11 10 11 6 0 10 -2 10 -4z m5100 -6 c0
-5 -4 -10 -10 -10 -5 0 -10 5 -10 10 0 6 5 10 10 10 6 0 10 -4 10 -10z m-1893
-32 c-3 -8 -6 -5 -6 6 -1 11 2 17 5 13 3 -3 4 -12 1 -19z m-3147 -5 c0 -5 -12
-14 -27 -21 -28 -13 -51 -3 -39 17 8 12 66 15 66 4z m985 -13 c3 -5 1 -10 -4
-10 -6 0 -11 5 -11 10 0 6 2 10 4 10 3 0 8 -4 11 -10z m-1075 -10 c0 -5 -5
-10 -11 -10 -5 0 -7 5 -4 10 3 6 8 10 11 10 2 0 4 -4 4 -10z m3190 -6 c0 -17
-22 -14 -28 4 -2 7 3 12 12 12 9 0 16 -7 16 -16z m2506 -2 c-2 -4 -6 -47 -7
-95 -2 -49 -6 -90 -10 -93 -12 -7 -18 50 -7 70 8 14 6 21 -6 28 -11 6 -16 22
-15 51 1 23 3 34 6 25 6 -24 19 -23 26 2 3 11 8 20 12 20 3 0 4 -4 1 -8z
m-2476 -9 c0 -5 -4 -15 -10 -23 -11 -18 -25 -7 -17 15 6 15 27 21 27 8z
m-3044 -38 c16 -12 16 -14 3 -15 -9 0 -22 7 -29 15 -16 19 0 19 26 0z m1844 4
c0 -7 10 -9 25 -5 21 5 25 3 25 -14 0 -11 7 -23 16 -27 15 -5 15 -7 0 -15 -22
-12 -21 -46 1 -44 12 1 19 -7 21 -22 2 -13 11 -26 20 -29 9 -3 25 -13 34 -21
17 -14 16 -16 -5 -38 -24 -26 -66 -31 -85 -12 -9 9 -12 8 -12 -7 -1 -19 -1
-19 -14 -2 -17 23 -30 22 -23 -2 3 -14 -2 -21 -17 -25 -30 -8 -31 -7 -32 12
-1 9 -2 22 -4 27 -3 13 -6 35 -8 59 -2 15 -5 16 -17 6 -9 -8 -15 -9 -15 -2 0
6 5 14 11 17 5 4 8 12 6 18 -2 7 9 32 24 56 25 42 26 46 11 59 -16 13 -16 13
1 8 9 -3 17 -1 17 4 0 6 5 10 10 10 6 0 10 -5 10 -11z m3180 -21 c0 -19 -2
-20 -10 -8 -13 19 -13 30 0 30 6 0 10 -10 10 -22z m-5235 2 c3 -6 -5 -10 -19
-10 -14 0 -28 5 -31 10 -3 6 5 10 19 10 14 0 28 -4 31 -10z m-63 -52 c-7 -7
-12 -8 -12 -2 0 14 12 26 19 19 2 -3 -1 -11 -7 -17z m873 12 c3 -5 1 -10 -4
-10 -6 0 -11 5 -11 10 0 6 2 10 4 10 3 0 8 -4 11 -10z m535 -5 c0 -8 -7 -15
-15 -15 -9 0 -12 6 -9 15 4 8 10 15 15 15 5 0 9 -7 9 -15z m3880 -30 c0 -25
-3 -45 -8 -45 -4 0 -6 20 -4 45 2 25 6 45 8 45 2 0 4 -20 4 -45z m475 35 c3
-5 -1 -10 -10 -10 -9 0 -13 5 -10 10 3 6 8 10 10 10 2 0 7 -4 10 -10z m-4915
-20 c0 -5 -5 -10 -11 -10 -5 0 -7 5 -4 10 3 6 8 10 11 10 2 0 4 -4 4 -10z
m-160 -15 c0 -8 -4 -15 -10 -15 -5 0 -10 7 -10 15 0 8 5 15 10 15 6 0 10 -7
10 -15z m3376 -6 c3 -6 17 -9 30 -6 13 2 21 0 18 -4 -7 -12 -41 -11 -49 1 -4
6 -16 8 -28 5 -17 -5 -19 -4 -7 4 19 14 27 14 36 0z m-843 -27 c-3 -12 -9 -22
-14 -22 -12 0 -11 7 2 32 13 25 20 19 12 -10z m-483 -2 c0 -5 -5 -10 -11 -10
-5 0 -7 5 -4 10 3 6 8 10 11 10 2 0 4 -4 4 -10z m446 -33 c-1 -21 -7 -33 -19
-35 -14 -3 -17 4 -17 36 0 34 3 39 19 35 14 -3 18 -13 17 -36z m354 33 c0 -5
-5 -10 -11 -10 -5 0 -7 5 -4 10 3 6 8 10 11 10 2 0 4 -4 4 -10z m-405 -10 c-3
-5 -11 -10 -16 -10 -6 0 -7 5 -4 10 3 6 11 10 16 10 6 0 7 -4 4 -10z m-375
-34 c0 -13 7 -26 15 -30 8 -3 15 -12 15 -21 0 -8 5 -15 11 -15 5 0 7 -5 3 -11
-5 -8 -9 -8 -14 1 -14 22 -32 0 -25 -30 4 -16 2 -31 -5 -35 -6 -4 -7 -12 -1
-22 4 -9 6 -24 3 -35 -3 -13 0 -17 11 -12 20 7 32 -13 17 -31 -17 -21 -1 -19
23 3 14 12 18 12 11 2 -5 -8 -9 -24 -9 -34 0 -22 -35 -31 -48 -13 -7 9 -10 9
-14 0 -2 -7 -14 -13 -26 -14 -21 -1 -21 -1 2 -8 21 -6 22 -8 7 -20 -9 -7 -16
-23 -16 -34 0 -11 -8 -26 -17 -33 -15 -10 -16 -15 -5 -25 6 -7 12 -19 12 -27
0 -12 -3 -12 -15 -2 -14 11 -19 7 -16 -12 0 -5 -8 -8 -20 -8 -14 0 -19 5 -16
14 3 8 2 28 -3 45 -5 19 -4 37 4 53 7 14 12 39 11 57 -1 23 5 37 21 50 23 18
23 18 3 37 -19 17 -20 17 -13 -1 5 -13 4 -16 -4 -11 -7 4 -12 14 -12 23 0 37
89 62 91 26 0 -13 2 -14 6 -4 3 8 0 19 -8 25 -18 14 -38 56 -37 79 1 13 8 17
28 14 24 -4 26 -2 22 25 -3 21 -8 26 -15 19 -6 -6 -15 -11 -21 -11 -5 0 -1 7
10 15 16 13 17 16 4 25 -12 8 -11 10 8 10 17 0 22 -6 22 -24z m194 -2 c3 -8 2
-12 -4 -9 -6 3 -10 10 -10 16 0 14 7 11 14 -7z m2826 -16 c0 -12 -6 -9 -26 13
-19 22 -19 22 4 8 12 -8 22 -17 22 -21z m-3175 12 c-3 -5 -11 -10 -16 -10 -6
0 -7 5 -4 10 3 6 11 10 16 10 6 0 7 -4 4 -10z m77 -12 c-7 -7 -12 -8 -12 -2 0
6 3 14 7 17 3 4 9 5 12 2 2 -3 -1 -11 -7 -17z m878 1 c0 -6 -4 -7 -10 -4 -5 3
-10 11 -10 16 0 6 5 7 10 4 6 -3 10 -11 10 -16z m-550 -29 c0 -5 -2 -10 -4
-10 -3 0 -8 5 -11 10 -3 6 -1 10 4 10 6 0 11 -4 11 -10z m210 -12 c0 -18 -2
-20 -9 -8 -6 8 -7 18 -5 22 9 14 14 9 14 -14z m2551 -40 c-8 -28 -9 -30 -10
-8 -1 34 12 80 17 58 2 -9 -1 -31 -7 -50z m-2245 38 c8 -8 11 -17 6 -20 -4 -2
-13 4 -20 15 -14 22 -7 25 14 5z m894 10 c0 -3 -4 -8 -10 -11 -5 -3 -10 -1
-10 4 0 6 5 11 10 11 6 0 10 -2 10 -4z m-2413 -38 c-3 -7 -5 -2 -5 12 0 14 2
19 5 13 2 -7 2 -19 0 -25z m863 22 c0 -5 -2 -10 -4 -10 -3 0 -8 5 -11 10 -3 6
-1 10 4 10 6 0 11 -4 11 -10z m54 -22 c-9 -30 -12 -34 -24 -22 -14 14 -2 44
17 44 10 0 12 -6 7 -22z m-684 2 c0 -5 -7 -10 -16 -10 -8 0 -12 5 -9 10 3 6
10 10 16 10 5 0 9 -4 9 -10z m570 -31 c0 -6 -4 -7 -10 -4 -5 3 -10 11 -10 16
0 6 5 7 10 4 6 -3 10 -11 10 -16z m360 -13 c0 -3 -4 -8 -10 -11 -5 -3 -10 -1
-10 4 0 6 5 11 10 11 6 0 10 -2 10 -4z m371 -51 c16 -6 18 -9 8 -16 -8 -4 -19
-3 -26 3 -9 7 -13 7 -13 -1 0 -6 5 -12 10 -12 6 -1 16 -2 22 -3 7 0 14 -10 16
-21 2 -14 0 -16 -6 -7 -5 7 -16 10 -27 6 -13 -5 -16 -4 -11 4 4 7 1 12 -8 12
-18 0 -19 4 -9 51 5 29 7 30 14 12 4 -12 18 -24 30 -28z m2182 -48 c-4 -20 -8
-25 -14 -16 -4 7 -3 21 3 32 13 25 17 18 11 -16z m-1813 -17 c0 -12 -8 -12
-35 0 -18 8 -17 9 8 9 15 1 27 -3 27 -9z m-1139 -107 c-9 -16 -10 -16 -11 -1
0 9 3 25 7 35 7 16 8 17 11 1 2 -10 -1 -25 -7 -35z m-1151 -18 c-14 -17 -30
-20 -30 -6 0 5 8 12 18 14 9 3 19 5 21 6 2 0 -2 -6 -9 -14z m998 -90 c-3 -3
-9 2 -12 12 -6 14 -5 15 5 6 7 -7 10 -15 7 -18z m13 -42 c2 -24 2 -25 6 -5 7
34 23 26 23 -12 0 -32 -13 -46 -41 -46 -6 0 -9 20 -8 45 3 49 18 62 20 18z
m-71 -17 c0 -3 -4 -8 -10 -11 -5 -3 -10 -1 -10 4 0 6 5 11 10 11 6 0 10 -2 10
-4z m-147 -13 c4 -3 2 -12 -4 -20 -9 -10 -7 -13 7 -13 27 0 41 -44 38 -120 -3
-82 -11 -102 -35 -95 -18 6 -28 -10 -10 -17 4 -1 11 -24 15 -49 6 -41 4 -47
-13 -52 -11 -2 -25 0 -31 7 -10 8 -11 5 -6 -16 7 -33 -4 -37 -22 -8 -18 29
-34 26 -22 -4 5 -14 5 -26 1 -28 -5 -2 -11 -24 -15 -51 -6 -38 -4 -48 8 -53
20 -8 21 -41 1 -41 -8 0 -15 7 -15 16 0 9 -9 27 -19 40 -18 24 -19 24 -37 6
-17 -17 -17 -18 -2 -12 13 5 19 0 23 -18 3 -14 7 -36 10 -49 3 -13 8 -32 12
-42 4 -11 3 -15 -5 -10 -6 3 -15 -2 -21 -11 -6 -10 -11 -12 -11 -5 0 6 -9 12
-21 12 -16 0 -19 -4 -14 -20 4 -11 2 -20 -4 -20 -6 0 -11 -11 -11 -25 0 -18
-5 -25 -20 -25 -13 0 -18 5 -14 15 4 9 0 15 -10 15 -10 0 -16 -8 -16 -21 0
-14 -5 -19 -14 -16 -10 4 -18 -5 -26 -26 -11 -29 -13 -30 -20 -12 -7 17 -9 17
-9 3 -1 -10 -5 -18 -11 -18 -5 0 -10 -6 -10 -13 0 -17 -44 -42 -58 -33 -11 7
-25 -21 -16 -35 9 -15 -13 -10 -30 6 -21 22 -29 18 -24 -10 3 -14 1 -25 -3
-25 -5 0 -12 0 -16 0 -5 0 -8 5 -8 10 0 6 -3 10 -7 10 -5 0 -12 0 -16 0 -11 0
-32 -46 -32 -70 0 -11 -4 -20 -10 -20 -5 0 -10 11 -10 25 0 17 -6 25 -17 25
-9 0 -14 -3 -10 -6 8 -9 -18 -34 -35 -34 -8 1 -7 6 6 15 18 13 15 35 -5 35 -6
0 -8 -4 -5 -9 3 -5 -2 -15 -11 -22 -13 -11 -17 -11 -20 -1 -7 18 -23 15 -23
-5 0 -15 -2 -16 -10 -3 -6 10 -10 11 -10 3 0 -7 -5 -13 -11 -13 -5 0 -8 4 -5
9 9 14 -18 31 -42 24 -14 -3 -22 -13 -22 -27 0 -15 -3 -17 -8 -8 -5 7 -16 10
-25 6 -10 -3 -17 -1 -17 5 0 21 -20 11 -30 -14 -11 -30 -24 -34 -15 -5 9 29
-4 80 -21 80 -20 0 -18 -17 4 -29 11 -7 14 -13 7 -20 -12 -12 -25 -4 -41 24
-7 11 -19 19 -28 19 -12 -1 -15 3 -11 17 5 15 1 19 -16 19 l-22 0 23 25 24 25
-32 -6 c-26 -5 -32 -3 -32 11 0 11 -5 15 -15 11 -8 -3 -15 -1 -15 5 0 6 -5 7
-11 3 -7 -4 -10 -1 -7 7 3 8 17 13 32 12 17 -1 26 3 26 13 0 17 -55 20 -65 4
-4 -7 -12 -7 -18 -2 -7 4 -24 8 -39 7 -16 0 -28 2 -28 6 0 4 -9 9 -21 12 -16
4 -19 10 -14 28 6 19 5 21 -19 15 -14 -3 -26 -4 -26 0 0 12 30 35 39 30 5 -3
15 2 22 11 13 14 11 16 -19 11 -26 -4 -32 -1 -32 14 0 21 -1 21 -32 9 -22 -8
-23 -7 -20 30 4 36 2 39 -22 39 -26 0 -36 22 -16 35 8 5 8 11 1 19 -6 7 -8 16
-5 19 7 7 -15 107 -27 123 -5 6 -8 22 -7 35 2 17 -2 23 -13 21 -9 -1 -22 5
-29 13 -9 11 -9 15 -1 15 6 0 16 11 21 25 6 15 17 25 30 25 25 0 25 10 1 37
-18 19 -18 21 -2 35 9 8 23 12 31 10 13 -5 13 -3 0 13 -14 17 -14 18 8 6 22
-12 23 -11 17 21 -3 18 -1 40 4 48 8 12 13 11 30 -9 26 -30 37 -86 22 -117
-14 -32 -14 -41 1 -26 28 28 64 4 63 -40 0 -34 -7 -35 -31 -4 -10 14 -21 23
-24 21 -10 -6 1 -75 12 -75 6 0 8 -7 4 -15 -3 -9 0 -15 9 -15 8 0 15 -6 15
-14 0 -7 7 -19 16 -27 8 -7 13 -21 10 -32 -6 -23 13 -57 32 -57 8 0 12 -6 9
-14 -3 -8 0 -17 7 -19 9 -4 12 -16 8 -34 -2 -15 -1 -25 3 -21 4 4 16 3 26 -2
12 -7 19 -6 22 3 3 6 6 0 6 -15 1 -16 7 -28 14 -28 7 0 24 -11 39 -25 16 -15
33 -22 43 -19 10 4 14 2 10 -8 -5 -12 15 -14 112 -13 65 0 126 -4 137 -10 13
-7 20 -7 23 3 3 6 15 12 28 12 13 0 36 5 52 11 15 5 50 12 78 15 29 3 53 11
58 20 5 8 13 11 19 8 7 -5 8 -2 4 5 -5 8 -1 14 12 18 11 2 23 15 26 26 5 19 8
20 16 7 8 -13 10 -13 10 2 0 9 9 20 20 23 11 3 20 13 20 21 0 8 6 14 14 14 14
0 30 26 28 45 -2 12 71 65 88 65 6 0 10 6 7 13 -2 6 -10 11 -16 10 -6 -2 -11
2 -11 7 0 6 5 10 10 10 19 0 10 18 -12 24 -22 6 -22 7 -5 20 15 12 16 15 2 26
-14 12 -14 15 2 33 10 10 17 28 15 39 -2 11 1 18 6 14 11 -6 22 15 22 42 1 26
36 62 60 62 12 0 19 4 15 10 -3 5 -12 7 -19 4 -8 -3 -17 -1 -20 4 -3 5 23 12
60 15 36 2 71 10 77 16 13 13 21 14 30 4z m-807 -37 c5 -25 2 -34 -21 -53 -32
-28 -100 -30 -100 -3 0 8 -4 21 -9 29 -6 9 -2 19 15 32 13 9 26 16 29 14 3 -2
12 0 19 5 8 4 24 7 37 6 17 -1 25 -9 30 -30z m192 -41 c-20 -19 -88 -27 -88
-11 0 8 -7 19 -15 26 -19 16 -19 30 -1 30 8 0 16 6 19 13 3 9 7 9 19 -1 13
-10 17 -10 21 0 4 9 12 5 26 -12 l21 -25 1 30 c2 29 2 29 6 -4 3 -20 -1 -39
-9 -46z m746 50 c-6 -16 -24 -21 -24 -7 0 11 11 22 21 22 5 0 6 -7 3 -15z
m-1469 -15 c3 -5 1 -10 -4 -10 -6 0 -11 5 -11 10 0 6 2 10 4 10 3 0 8 -4 11
-10z m603 -26 c8 -6 13 -16 11 -22 -3 -7 -13 -5 -28 7 -18 14 -22 23 -16 37 6
16 8 16 13 4 3 -8 12 -20 20 -26z m2515 -4 c3 -11 1 -20 -4 -20 -5 0 -9 2 -9
4 0 2 -3 11 -6 20 -3 9 -2 16 4 16 5 0 12 -9 15 -20z m-2002 -23 c-13 -12 -20
-15 -16 -7 14 26 28 41 33 35 3 -3 -5 -16 -17 -28z m2019 -17 c0 -5 -4 -10
-10 -10 -5 0 -10 5 -10 10 0 6 5 10 10 10 6 0 10 -4 10 -10z m-1716 -12 c9
-10 8 -17 -6 -30 -17 -17 -18 -17 -18 12 0 33 5 37 24 18z m45 -45 c-1 -10 9
-46 22 -79 24 -67 21 -95 -9 -88 -20 6 -58 61 -48 71 3 4 6 1 6 -5 0 -9 5 -9
20 0 26 16 26 48 0 55 -18 5 -22 27 -11 61 4 11 20 -2 20 -15z m-640 -39 c-20
-24 -93 -56 -98 -43 -2 8 -6 7 -12 -2 -7 -11 -11 -11 -17 -2 -6 10 -14 9 -35
-2 -17 -9 -29 -10 -33 -3 -4 5 -21 7 -39 4 -47 -9 -56 19 -12 37 29 13 32 12
37 -6 5 -17 7 -18 20 -6 8 8 26 16 39 17 14 2 36 9 50 15 14 5 29 10 33 9 4
-1 19 5 35 13 24 13 29 13 36 -1 5 -9 4 -21 -4 -30z m45 30 c4 -10 1 -14 -6
-12 -15 5 -23 28 -10 28 5 0 13 -7 16 -16z m216 -14 c-10 -19 -30 -28 -30 -14
0 6 30 33 38 34 1 0 -2 -9 -8 -20z m-1160 -21 c0 -5 -4 -9 -10 -9 -5 0 -10 7
-10 16 0 8 5 12 10 9 6 -3 10 -10 10 -16z m474 -31 c-9 -14 -23 2 -17 18 4 12
8 13 14 3 4 -7 5 -17 3 -21z m36 25 c0 -5 11 -13 25 -20 14 -6 25 -7 25 -2 0
5 11 9 25 9 18 0 25 -5 25 -20 0 -17 -5 -19 -42 -16 -24 2 -51 4 -60 5 -19 1
-27 51 -8 51 6 0 10 -3 10 -7z m980 -50 c-1 -28 -3 -34 -10 -22 -8 14 -3 59 6
59 2 0 4 -17 4 -37z m850 -97 c0 -3 -4 -8 -10 -11 -5 -3 -10 -1 -10 4 0 6 5
11 10 11 6 0 10 -2 10 -4z m1320 -170 c0 -9 -12 -16 -27 -18 -18 -2 -27 -8
-26 -18 2 -12 -7 -14 -48 -11 -28 1 -47 6 -42 10 10 8 73 30 104 36 12 2 24 7
27 10 9 8 12 6 12 -9z m-1436 -22 c3 -8 2 -12 -4 -9 -6 3 -10 10 -10 16 0 14
7 11 14 -7z m1416 -44 c0 -5 -12 -10 -27 -9 -25 0 -26 1 -8 9 27 12 35 12 35
0z m-25 -31 c10 -15 2 -19 -23 -12 -12 3 -19 9 -16 14 7 12 31 11 39 -2z
m-1409 -20 c3 -6 1 -16 -6 -22 -10 -9 -11 -9 -5 2 4 8 2 17 -6 22 -9 6 -10 9
-2 9 6 0 15 -5 19 -11z m-3345 -709 c30 -17 22 -30 -13 -23 -41 7 -46 12 -28
23 19 12 17 12 41 0z m3079 -339 c0 -12 -28 -22 -34 -12 -3 5 -3 11 1 15 9 9
33 7 33 -3z m-2970 -81 c0 -5 -4 -10 -10 -10 -5 0 -10 5 -10 10 0 6 5 10 10
10 6 0 10 -4 10 -10z m2940 -22 c0 -19 -2 -20 -10 -8 -13 19 -13 30 0 30 6 0
10 -10 10 -22z m-1274 -103 c2 -27 6 -59 9 -70 5 -22 -10 -53 -21 -43 -3 4 -8
58 -10 120 -3 89 -1 105 7 78 5 -19 12 -57 15 -85z m-1385 84 c-13 -11 -26
-17 -28 -15 -8 8 21 35 37 35 10 0 8 -6 -9 -20z m-164 -15 c-3 -3 -12 -4 -19
-1 -8 3 -5 6 6 6 11 1 17 -2 13 -5z m-287 -95 c0 -5 -4 -9 -10 -9 -5 0 -10 7
-10 16 0 8 5 12 10 9 6 -3 10 -10 10 -16z m3060 -110 c0 -6 -4 -7 -10 -4 -5 3
-10 11 -10 16 0 6 5 7 10 4 6 -3 10 -11 10 -16z m-2945 -9 c3 -5 1 -10 -4 -10
-6 0 -11 5 -11 10 0 6 2 10 4 10 3 0 8 -4 11 -10z"/>
<path d="M5866 6113 c-11 -11 -6 -23 8 -23 8 0 17 4 20 9 7 10 -19 23 -28 14z"/>
<path d="M5915 5070 c3 -5 8 -10 11 -10 2 0 4 5 4 10 0 6 -5 10 -11 10 -5 0
-7 -4 -4 -10z"/>
<path d="M5910 5031 c0 -25 6 -27 13 -6 4 8 2 17 -3 20 -6 4 -10 -3 -10 -14z"/>
<path d="M5960 4999 c12 -22 22 -19 26 6 1 9 -6 15 -17 15 -17 0 -18 -3 -9
-21z"/>
<path d="M6020 5009 c0 -5 5 -7 10 -4 6 3 10 8 10 11 0 2 -4 4 -10 4 -5 0 -10
-5 -10 -11z"/>
<path d="M5360 3749 c0 -5 5 -7 10 -4 6 3 10 8 10 11 0 2 -4 4 -10 4 -5 0 -10
-5 -10 -11z"/>
<path d="M3495 3730 c-3 -5 1 -10 9 -10 8 0 18 5 21 10 3 6 -1 10 -9 10 -8 0
-18 -4 -21 -10z"/>
<path d="M4630 3550 c0 -5 5 -10 10 -10 6 0 10 5 10 10 0 6 -4 10 -10 10 -5 0
-10 -4 -10 -10z"/>
<path d="M4877 3493 c-14 -13 -6 -33 13 -33 13 0 20 7 20 20 0 19 -20 27 -33
13z"/>
<path d="M4497 3405 c12 -8 29 -12 39 -8 16 6 16 7 -2 14 -10 4 -28 8 -39 8
-19 1 -18 0 2 -14z"/>
<path d="M4251 3392 c-1 -7 -5 -11 -10 -7 -16 9 -24 -16 -10 -31 22 -22 46 -1
32 28 -7 13 -12 17 -12 10z"/>
<path d="M3851 3324 c0 -11 3 -14 6 -6 3 7 2 16 -1 19 -3 4 -6 -2 -5 -13z"/>
<path d="M3759 3299 c0 -2 -2 -20 -4 -39 l-4 -35 10 34 c6 18 8 36 5 39 -3 3
-6 3 -7 1z"/>
<path d="M3650 3191 c0 -5 7 -11 15 -15 8 -3 15 -1 15 3 0 5 -7 11 -15 15 -8
3 -15 1 -15 -3z"/>
<path d="M4952 3118 c5 -32 28 -35 28 -4 0 17 -5 26 -16 26 -10 0 -14 -7 -12
-22z"/>
<path d="M5090 3105 c0 -8 5 -15 10 -15 6 0 10 7 10 15 0 8 -4 15 -10 15 -5 0
-10 -7 -10 -15z"/>
<path d="M4997 3073 c-6 -30 1 -53 14 -53 5 0 9 7 9 15 0 8 5 15 10 15 15 0
12 19 -4 36 -20 19 -23 18 -29 -13z"/>
<path d="M3840 3029 c0 -5 5 -7 10 -4 6 3 10 8 10 11 0 2 -4 4 -10 4 -5 0 -10
-5 -10 -11z"/>
<path d="M4270 2988 c0 -12 26 -38 38 -38 8 0 22 22 22 35 0 1 -13 5 -30 7
-16 3 -30 0 -30 -4z"/>
<path d="M4290 2905 c0 -9 6 -12 15 -9 8 4 15 10 15 15 0 5 -7 9 -15 9 -8 0
-15 -7 -15 -15z"/>
<path d="M4928 2794 c-5 -40 25 -75 47 -53 12 12 10 19 -14 48 l-28 34 -5 -29z"/>
<path d="M4490 2786 c0 -9 5 -16 10 -16 6 0 10 4 10 9 0 6 -4 13 -10 16 -5 3
-10 -1 -10 -9z"/>
<path d="M4990 2790 c0 -5 5 -10 10 -10 6 0 10 5 10 10 0 6 -4 10 -10 10 -5 0
-10 -4 -10 -10z"/>
<path d="M4910 2725 c0 -8 5 -15 10 -15 6 0 10 7 10 15 0 8 -4 15 -10 15 -5 0
-10 -7 -10 -15z"/>
<path d="M6379 3728 c-1 -2 -3 -13 -4 -25 -2 -19 2 -23 24 -22 17 1 20 3 9 6
-16 4 -22 15 -19 36 1 6 -7 10 -10 5z"/>
<path d="M2872 2880 c-7 -11 -8 -20 -4 -20 5 0 17 9 27 20 14 15 15 20 4 20
-8 0 -20 -9 -27 -20z"/>
<path d="M2720 2820 c0 -5 4 -10 9 -10 5 0 11 -12 13 -27 2 -14 10 -29 18 -31
12 -4 13 -2 3 10 -10 11 -10 17 -1 26 9 9 7 15 -8 27 -23 17 -34 19 -34 5z"/>
<path d="M2680 2810 c0 -5 7 -10 15 -10 8 0 15 5 15 10 0 6 -7 10 -15 10 -8 0
-15 -4 -15 -10z"/>
<path d="M6235 2820 c-3 -5 -1 -10 4 -10 6 0 11 5 11 10 0 6 -2 10 -4 10 -3 0
-8 -4 -11 -10z"/>
<path d="M4073 2643 c-21 -8 -15 -22 7 -16 11 3 20 9 20 14 0 10 -8 10 -27 2z"/>
<path d="M4715 2540 c-3 -5 -1 -10 4 -10 6 0 11 5 11 10 0 6 -2 10 -4 10 -3 0
-8 -4 -11 -10z"/>
<path d="M4300 2081 c0 -10 67 -8 77 3 3 3 -12 6 -35 6 -23 0 -42 -4 -42 -9z"/>
<path d="M4400 2046 c0 -9 7 -16 16 -16 17 0 14 22 -4 28 -7 2 -12 -3 -12 -12z"/>
<path d="M4232 1986 c1 -14 6 -23 9 -20 10 6 7 44 -3 44 -4 0 -7 -11 -6 -24z"/>
<path d="M3096 1974 c-5 -14 -4 -15 9 -4 17 14 19 20 6 20 -5 0 -12 -7 -15
-16z"/>
<path d="M4183 1933 c-28 -6 -39 -33 -13 -33 21 0 27 -15 10 -25 -13 -8 -13
-25 0 -25 6 0 14 8 17 18 4 9 13 22 20 27 13 10 8 47 -6 44 -3 -1 -16 -4 -28
-6z"/>
<path d="M3531 1254 c0 -11 3 -14 6 -6 3 7 2 16 -1 19 -3 4 -6 -2 -5 -13z"/>
<path d="M3480 2040 c0 -5 5 -10 11 -10 5 0 7 5 4 10 -3 6 -8 10 -11 10 -2 0
-4 -4 -4 -10z"/>
<path d="M6496 8078 c-3 -24 -8 -149 -11 -278 -3 -129 -15 -392 -25 -585 -24
-429 -28 -513 -34 -640 l-5 -100 14 90 c8 50 19 153 24 230 27 357 42 536 53
610 10 67 13 304 8 698 0 35 -19 16 -24 -25z"/>
<path d="M6566 8074 c-10 -74 -8 -104 7 -98 21 8 38 43 44 95 6 47 5 49 -19
49 -22 0 -26 -5 -32 -46z"/>
<path d="M6650 8111 c0 -6 5 -13 10 -16 6 -3 10 1 10 9 0 9 -4 16 -10 16 -5 0
-10 -4 -10 -9z"/>
<path d="M6765 8055 c-4 -36 -5 -68 -2 -71 9 -9 34 47 42 94 6 38 5 42 -13 42
-18 0 -21 -9 -27 -65z"/>
<path d="M7309 8093 c0 -16 -2 -53 -3 -83 -2 -30 -6 -143 -10 -250 l-7 -195
32 -34 c29 -31 33 -33 44 -18 7 9 18 17 26 17 19 0 44 80 28 90 -6 5 -8 13 -4
20 4 7 10 32 11 55 3 36 1 44 -16 48 -27 7 -25 21 5 35 21 10 24 17 19 37 -3
14 -2 31 4 38 5 6 10 69 10 140 l0 127 -69 0 c-68 0 -69 0 -70 -27z"/>
<path d="M7558 8088 c-3 -18 -4 -72 -2 -119 2 -83 4 -87 37 -124 l34 -37 20
21 c12 13 26 19 36 15 19 -7 18 -14 21 169 l1 107 -71 0 -71 0 -5 -32z"/>
<path d="M6653 8030 c0 -30 2 -43 4 -27 2 15 2 39 0 55 -2 15 -4 2 -4 -28z"/>
<path d="M6640 7919 c0 -15 -12 -37 -30 -54 -19 -18 -31 -42 -35 -69 -10 -64
-12 -176 -3 -176 4 0 8 23 8 50 0 45 4 52 27 49 3 0 10 6 14 14 11 19 32 197
25 204 -3 4 -6 -5 -6 -18z"/>
<path d="M6563 7570 c-11 -39 -6 -62 9 -36 5 9 8 29 6 44 -4 26 -4 26 -15 -8z"/>
<path d="M4735 7520 c-3 -5 1 -10 9 -10 9 0 16 5 16 10 0 6 -4 10 -9 10 -6 0
-13 -4 -16 -10z"/>
<path d="M6553 7436 c3 -46 1 -78 -6 -85 -8 -8 -6 -11 6 -11 19 0 19 2 19 85
-1 85 -1 85 -13 85 -7 0 -9 -25 -6 -74z"/>
<path d="M1784 7398 l-19 -23 23 19 c21 18 27 26 19 26 -2 0 -12 -10 -23 -22z"/>
<path d="M2285 7280 c3 -5 8 -10 11 -10 2 0 4 5 4 10 0 6 -5 10 -11 10 -5 0
-7 -4 -4 -10z"/>
<path d="M6266 7267 c3 -10 9 -15 12 -12 3 3 0 11 -7 18 -10 9 -11 8 -5 -6z"/>
<path d="M5043 7245 c-3 -9 -3 -18 -1 -21 3 -3 8 4 11 16 6 23 -1 27 -10 5z"/>
<path d="M6549 7174 c-7 -8 -16 -58 -20 -112 -4 -53 -15 -160 -24 -237 -21
-183 -36 -414 -39 -600 -2 -103 -7 -158 -16 -175 l-14 -25 -6 25 c-4 14 -5 53
-2 88 4 53 2 62 -10 57 -12 -5 -17 -32 -22 -117 -4 -60 -5 -113 -2 -116 4 -3
19 6 34 20 15 14 38 29 52 33 35 10 50 24 43 40 -2 8 2 119 11 247 9 128 21
330 26 448 10 216 15 260 31 260 5 0 9 12 9 28 0 21 -2 24 -10 12 -7 -10 -10
9 -10 63 0 77 -6 90 -31 61z"/>
<path d="M5375 7150 c4 -6 2 -16 -4 -23 -13 -16 3 -42 21 -34 20 7 11 67 -9
67 -8 0 -11 -5 -8 -10z"/>
<path d="M5431 7133 c0 -25 1 -26 9 -8 12 27 12 35 0 35 -5 0 -10 -12 -9 -27z"/>
<path d="M5484 7145 c-9 -22 3 -45 23 -45 13 0 15 2 5 9 -10 6 -10 10 2 21 9
7 13 16 10 21 -8 14 -34 10 -40 -6z"/>
<path d="M5565 7151 c3 -5 1 -12 -5 -16 -18 -11 -11 -35 10 -35 16 0 20 7 20
30 0 21 -5 30 -16 30 -8 0 -13 -4 -9 -9z"/>
<path d="M5945 7120 c-3 -5 1 -10 9 -10 9 0 16 5 16 10 0 6 -4 10 -9 10 -6 0
-13 -4 -16 -10z"/>
<path d="M7103 7064 c-29 -22 -33 -31 -33 -72 0 -26 -7 -59 -14 -75 -14 -25
-14 -27 4 -17 44 23 40 4 -10 -52 -22 -25 -35 -49 -31 -54 17 -18 20 -121 4
-144 -17 -25 -28 -110 -14 -110 5 0 19 12 30 26 11 14 24 23 29 20 14 -8 144
134 138 150 -3 9 -1 12 4 9 6 -3 10 0 10 7 0 7 3 24 7 38 6 24 6 24 -14 8 -30
-27 -43 -22 -41 15 1 19 -2 39 -6 46 -4 6 -2 19 5 27 19 23 12 174 -9 190 -23
18 -22 18 -59 -12z"/>
<path d="M5400 7021 c0 -6 -7 -11 -15 -11 -8 0 -15 -5 -15 -11 0 -5 5 -7 10
-4 6 4 17 1 25 -5 12 -10 15 -9 15 8 0 12 -4 24 -10 27 -5 3 -10 1 -10 -4z"/>
<path d="M5691 7002 c-10 -19 2 -52 20 -52 6 0 7 5 3 11 -3 6 -1 15 6 19 14 9
7 40 -9 40 -6 0 -15 -8 -20 -18z"/>
<path d="M5440 7002 c0 -4 9 -8 20 -8 11 0 20 4 20 8 0 4 -9 8 -20 8 -11 0
-20 -4 -20 -8z"/>
<path d="M5510 7001 c0 -5 9 -7 20 -4 11 3 20 7 20 9 0 2 -9 4 -20 4 -11 0
-20 -4 -20 -9z"/>
<path d="M5595 7001 c3 -5 1 -12 -5 -16 -18 -11 -11 -35 10 -35 16 0 20 7 20
30 0 21 -5 30 -16 30 -8 0 -13 -4 -9 -9z"/>
<path d="M5386 6960 c-11 -3 -15 -9 -10 -13 10 -6 42 9 34 16 -3 3 -14 1 -24
-3z"/>
<path d="M5448 6953 c6 -2 18 -2 25 0 6 3 1 5 -13 5 -14 0 -19 -2 -12 -5z"/>
<path d="M6260 6843 c0 -13 5 -23 10 -23 13 0 13 11 0 30 -8 12 -10 11 -10 -7z"/>
<path d="M6255 6689 c-12 -18 -13 -59 -1 -59 6 0 11 16 12 35 1 37 -1 41 -11
24z"/>
<path d="M6240 6590 c0 -5 4 -10 9 -10 6 0 13 5 16 10 3 6 -1 10 -9 10 -9 0
-16 -4 -16 -10z"/>
<path d="M6247 6553 c-4 -3 -7 -12 -7 -20 0 -15 26 -18 34 -4 7 11 -18 33 -27
24z"/>
<path d="M6582 6530 c0 -14 2 -19 5 -12 2 6 2 18 0 25 -3 6 -5 1 -5 -13z"/>
<path d="M6258 6512 c-14 -3 -18 -14 -18 -45 0 -23 4 -37 8 -32 4 6 20 16 36
23 22 10 26 16 17 22 -8 4 -11 12 -7 18 7 12 -12 20 -36 14z"/>
<path d="M6351 6464 c0 -11 3 -14 6 -6 3 7 2 16 -1 19 -3 4 -6 -2 -5 -13z"/>
<path d="M6946 6431 c-18 -20 -25 -99 -41 -501 -4 -91 -11 -186 -15 -212 -4
-27 -4 -48 0 -48 3 0 18 13 33 28 l27 28 5 224 c3 124 8 287 11 363 2 75 3
137 1 137 -2 0 -12 -9 -21 -19z"/>
<path d="M6250 6400 c-8 -5 -12 -12 -9 -15 4 -3 12 1 19 10 14 17 11 19 -10 5z"/>
<path d="M6351 6384 c0 -11 3 -14 6 -6 3 7 2 16 -1 19 -3 4 -6 -2 -5 -13z"/>
<path d="M6560 6213 c0 -53 2 -94 4 -92 9 11 15 189 6 189 -6 0 -10 -40 -10
-97z"/>
<path d="M6342 6190 c0 -14 2 -19 5 -12 2 6 2 18 0 25 -3 6 -5 1 -5 -13z"/>
<path d="M6342 6120 c0 -19 2 -27 5 -17 2 9 2 25 0 35 -3 9 -5 1 -5 -18z"/>
<path d="M6553 6055 c0 -22 2 -30 4 -17 2 12 2 30 0 40 -3 9 -5 -1 -4 -23z"/>
<path d="M6985 5950 c-17 -18 -17 -20 -1 -20 9 0 19 7 23 15 9 25 -2 27 -22 5z"/>
<path d="M7325 2410 c-61 -22 -73 -40 -81 -116 l-6 -59 66 -12 c36 -7 84 -13
106 -13 37 0 40 2 36 23 -3 12 -8 58 -12 102 -8 103 -15 108 -109 75z"/>
<path d="M5505 2340 c-3 -6 1 -7 9 -4 18 7 21 14 7 14 -6 0 -13 -4 -16 -10z"/>
<path d="M7851 2192 c-18 -33 -11 -41 18 -23 10 6 11 14 3 26 -9 17 -10 17
-21 -3z"/>
<path d="M6131 1944 c9 -11 8 -14 -7 -14 -15 0 -16 -2 -5 -9 9 -6 19 -4 28 4
18 18 17 22 -8 28 -16 4 -18 3 -8 -9z"/>
<path d="M6110 1890 c0 -5 5 -10 10 -10 6 0 10 5 10 10 0 6 -4 10 -10 10 -5 0
-10 -4 -10 -10z"/>
<path d="M5435 1870 c-3 -5 -1 -10 4 -10 6 0 11 5 11 10 0 6 -2 10 -4 10 -3 0
-8 -4 -11 -10z"/>
<path d="M5915 1811 c-3 -6 27 -37 67 -69 40 -33 92 -79 116 -101 48 -48 59
-31 13 21 -16 19 -31 45 -33 58 -2 18 -10 26 -28 28 -14 2 -39 19 -56 38 -31
33 -67 44 -79 25z"/>
<path d="M5370 1784 c0 -8 5 -12 10 -9 6 3 10 10 10 16 0 5 -4 9 -10 9 -5 0
-10 -7 -10 -16z"/>
<path d="M6810 1650 c0 -5 4 -10 9 -10 6 0 13 5 16 10 3 6 -1 10 -9 10 -9 0
-16 -4 -16 -10z"/>
<path d="M6508 1632 c-16 -2 -28 -8 -28 -13 0 -13 47 -11 55 2 9 14 5 15 -27
11z"/>
<path d="M5307 1594 c-4 -4 -7 -14 -7 -23 0 -11 3 -12 11 -4 6 6 10 16 7 23
-2 6 -7 8 -11 4z"/>
<path d="M6878 1543 c7 -3 16 -2 19 1 4 3 -2 6 -13 5 -11 0 -14 -3 -6 -6z"/>
<path d="M6925 1540 c-3 -5 -2 -10 3 -10 15 0 23 -28 10 -36 -6 -4 -8 -3 -5 3
4 6 0 14 -9 17 -28 11 -37 7 -23 -11 13 -15 9 -16 -43 -10 -51 6 -59 5 -86
-18 -17 -14 -35 -25 -42 -25 -6 0 -8 -4 -5 -10 4 -6 -6 -10 -22 -11 -15 0 -37
-4 -48 -9 -19 -8 -19 -9 3 -9 12 -1 22 -5 22 -10 0 -5 15 -11 32 -15 25 -5 36
-2 45 11 7 9 16 13 20 9 4 -4 1 -11 -7 -16 -24 -15 16 -37 68 -38 35 -1 43 2
38 13 -3 9 0 15 9 15 8 0 12 -6 9 -14 -4 -10 7 -12 53 -9 32 3 59 6 62 8 2 2
10 -3 19 -12 14 -14 17 -14 27 1 13 17 55 22 55 6 0 -5 25 -10 56 -10 38 0 53
3 48 11 -3 6 5 4 19 -6 15 -10 28 -12 31 -6 4 6 19 5 41 -5 44 -18 211 -20
180 -2 -11 7 -38 13 -60 14 -22 1 -41 7 -43 13 -2 6 -10 11 -18 11 -9 0 -12
-4 -9 -10 6 -10 -63 -4 -115 10 -14 3 -37 2 -51 -3 -14 -6 -35 -7 -45 -3 -18
7 -17 8 6 26 18 14 35 18 60 14 19 -3 46 -1 60 6 24 10 23 10 -8 5 -27 -4 -34
-1 -41 17 -7 19 -33 28 -91 30 -8 1 -18 6 -22 11 -4 6 -12 4 -22 -5 -14 -14
-13 -17 7 -23 21 -7 20 -8 -7 -12 -22 -4 -35 2 -53 21 -13 14 -29 26 -35 26
-20 0 14 30 36 31 18 0 16 3 -9 14 -35 17 -91 19 -100 5z m11 -84 c19 -20 18
-26 -6 -26 -13 0 -20 7 -20 20 0 24 6 25 26 6z m182 -48 c2 -11 -6 -14 -33
-14 -40 1 -46 12 -12 26 28 11 41 8 45 -12z m-238 2 c-20 -13 -33 -13 -25 0 3
6 14 10 23 10 15 0 15 -2 2 -10z m155 -8 c-15 -14 -115 -25 -115 -13 0 5 15
11 33 13 17 2 45 4 62 6 18 2 26 -1 20 -6z"/>
<path d="M5240 1510 c0 -5 5 -10 10 -10 6 0 10 5 10 10 0 6 -4 10 -10 10 -5 0
-10 -4 -10 -10z"/>
<path d="M7195 1490 c-3 -5 3 -10 14 -10 12 0 21 5 21 10 0 6 -6 10 -14 10 -8
0 -18 -4 -21 -10z"/>
<path d="M7378 1463 c7 -3 16 -2 19 1 4 3 -2 6 -13 5 -11 0 -14 -3 -6 -6z"/>
<path d="M7717 1432 c-9 -2 -17 -7 -17 -11 0 -5 38 -9 85 -9 59 0 85 3 85 11
0 11 -108 17 -153 9z"/>
<path d="M7920 1410 c0 -6 7 -10 15 -10 8 0 15 2 15 4 0 2 -7 6 -15 10 -8 3
-15 1 -15 -4z"/>
<path d="M7596 1364 c-18 -46 2 -57 86 -48 62 7 80 24 26 24 -25 0 -29 3 -18
10 26 17 55 11 65 -12 6 -13 15 -23 20 -24 6 0 18 -4 27 -8 23 -10 50 -4 56
13 3 9 0 11 -8 6 -7 -4 -16 -2 -20 5 -4 7 -19 13 -34 13 -14 0 -26 3 -26 8 0
5 5 9 10 9 6 0 10 5 10 10 0 6 -25 10 -56 10 -34 0 -53 -4 -49 -10 3 -5 -1
-10 -9 -10 -8 0 -18 5 -21 10 -10 16 -52 12 -59 -6z m44 -14 c0 -4 -9 -6 -21
-3 -15 4 -17 8 -8 14 14 8 29 3 29 -11z"/>
<path d="M7920 1370 c-20 -12 -10 -19 14 -10 11 3 15 9 10 13 -6 3 -16 2 -24
-3z"/>
<path d="M8023 1373 c9 -2 23 -2 30 0 6 3 -1 5 -18 5 -16 0 -22 -2 -12 -5z"/>
<path d="M7950 1328 c-51 -14 -56 -25 -15 -32 36 -7 64 2 37 11 -10 4 -8 9 5
19 21 15 20 16 -27 2z"/>
<path d="M8007 1312 c-9 -2 -15 -8 -12 -13 8 -12 45 -12 45 0 0 13 -12 18 -33
13z"/>
<path d="M8095 1300 c-3 -5 -1 -10 4 -10 6 0 11 5 11 10 0 6 -2 10 -4 10 -3 0
-8 -4 -11 -10z"/>
<path d="M7747 1283 c-4 -3 -7 -12 -7 -18 0 -18 26 -14 39 7 9 15 8 18 -7 18
-10 0 -22 -3 -25 -7z"/>
<path d="M5185 1250 c3 -5 8 -10 11 -10 2 0 4 5 4 10 0 6 -5 10 -11 10 -5 0
-7 -4 -4 -10z"/>
<path d="M6988 1253 c7 -3 16 -2 19 1 4 3 -2 6 -13 5 -11 0 -14 -3 -6 -6z"/>
<path d="M7956 1243 c-3 -4 -32 -8 -64 -9 -90 -3 -172 -16 -166 -26 6 -10 164
-5 182 6 17 10 62 -4 62 -20 0 -8 -7 -26 -16 -39 -14 -21 -14 -25 -2 -25 17 0
68 44 68 59 0 6 -7 8 -15 5 -8 -4 -15 -2 -15 4 0 13 55 32 93 32 17 0 27 3 23
7 -9 9 -142 14 -150 6z"/>
<path d="M7103 1227 c-8 -14 0 -15 42 -8 l40 7 -38 5 c-21 3 -41 1 -44 -4z"/>
<path d="M7600 1230 c0 -5 7 -10 15 -10 8 0 15 5 15 10 0 6 -7 10 -15 10 -8 0
-15 -4 -15 -10z"/>
<path d="M7650 1225 c0 -8 -6 -15 -12 -15 -9 0 -8 -3 2 -10 18 -11 41 6 33 26
-7 19 -23 18 -23 -1z"/>
<path d="M7513 1223 c-25 -9 -13 -23 15 -17 37 9 52 24 22 23 -14 0 -31 -3
-37 -6z"/>
<path d="M7340 1211 c-33 -6 -34 -7 -10 -14 37 -10 54 -9 76 8 18 14 18 14 -6
13 -14 0 -41 -4 -60 -7z"/>
<path d="M8040 1205 c-14 -17 -7 -45 12 -45 10 0 10 2 -1 9 -10 7 -11 13 -2
30 14 24 9 28 -9 6z"/>
<path d="M8058 1145 c-16 -22 -16 -23 1 -28 9 -2 27 4 39 13 l21 17 -22 10
c-18 9 -25 6 -39 -12z"/>
<path d="M7763 1121 c9 -11 9 -15 -1 -19 -8 -2 -3 -10 14 -19 33 -16 180 -25
164 -9 -5 5 -10 13 -10 17 0 8 68 23 87 20 8 -1 10 4 6 14 -3 10 -12 14 -22
11 -81 -27 -102 -30 -110 -17 -6 9 -31 14 -74 15 -55 1 -64 -1 -54 -13z"/>
<path d="M7550 1119 c0 -3 -24 -7 -52 -8 -39 -1 -58 -7 -73 -22 l-20 -21 35 7
c19 4 41 12 47 17 15 12 99 2 108 -12 7 -11 95 -2 110 11 5 5 -3 9 -19 9 -21
0 -27 4 -22 15 4 12 -5 14 -54 12 -33 -1 -60 -5 -60 -8z"/>
<path d="M8093 1099 c-14 -5 -23 -17 -23 -29 0 -23 8 -25 33 -5 27 19 19 45
-10 34z"/>
<path d="M7360 1080 c19 -13 30 -13 30 0 0 6 -10 10 -22 10 -19 0 -20 -2 -8
-10z"/>
<path d="M7680 1020 c-12 -8 -10 -10 8 -10 13 0 20 4 17 10 -7 12 -6 12 -25 0z"/>
<path d="M8045 1019 c8 -12 75 -12 75 0 0 5 -18 9 -40 9 -23 1 -38 -3 -35 -9z"/>
<path d="M7774 997 l-27 -23 35 4 c29 3 35 7 31 23 -7 24 -6 24 -39 -4z"/>
<path d="M7960 980 c20 -13 60 -13 60 0 0 6 -17 10 -37 10 -28 0 -34 -3 -23
-10z"/>
<path d="M8045 942 c-33 -11 -43 -18 -30 -20 11 -2 27 -5 35 -8 25 -9 -10 -25
-50 -23 -19 1 -46 -3 -60 -9 -19 -8 -10 -9 44 -5 55 4 67 2 63 -9 -2 -7 -9
-12 -15 -11 -5 1 -13 -4 -16 -12 -3 -9 0 -15 9 -15 7 0 21 -7 29 -16 12 -12
16 -12 16 -2 0 10 2 11 8 0 5 -7 16 -10 25 -6 23 8 21 21 -3 27 -14 4 -18 10
-13 23 5 13 3 16 -10 11 -9 -3 -17 -3 -17 2 0 16 13 20 36 11 23 -9 24 -8 24
35 0 51 -2 52 -75 27z"/>
<path d="M7766 925 c-6 -17 17 -31 34 -20 5 3 10 13 10 21 0 19 -36 18 -44 -1z"/>
<path d="M7852 860 c14 -10 67 -37 118 -60 51 -22 102 -47 114 -55 24 -17 36
-19 36 -5 0 6 -7 10 -15 10 -8 0 -28 12 -44 28 -57 53 -71 62 -100 62 -15 0
-38 9 -51 20 -13 11 -36 20 -53 20 l-30 0 25 -20z"/>
<path d="M4990 821 c-14 -28 -13 -31 13 -31 16 0 18 3 8 9 -9 6 -10 11 -2 15
6 4 11 11 11 17 0 16 -19 10 -30 -10z"/>
<path d="M8100 780 c0 -5 5 -10 10 -10 6 0 10 5 10 10 0 6 -4 10 -10 10 -5 0
-10 -4 -10 -10z"/>
<path d="M2094 686 c-6 -6 -8 -20 -4 -30 5 -16 7 -15 18 8 12 27 4 41 -14 22z"/>
<path d="M2173 682 c-13 -2 -23 -9 -23 -16 0 -23 11 -25 32 -4 23 23 22 25 -9
20z"/>
<path d="M4957 666 c-4 -9 2 -17 14 -21 27 -9 35 1 16 20 -19 19 -23 19 -30 1z"/>
<path d="M2350 660 c0 -5 5 -10 11 -10 5 0 7 5 4 10 -3 6 -8 10 -11 10 -2 0
-4 -4 -4 -10z"/>
<path d="M1859 638 c-11 -20 -10 -21 3 -11 8 7 18 10 21 6 4 -3 7 1 7 10 0 24
-17 21 -31 -5z"/>
<path d="M3027 653 c-4 -3 -7 -10 -7 -14 0 -9 39 1 46 12 6 10 -29 12 -39 2z"/>
<path d="M2795 640 c-4 -6 7 -10 24 -10 17 0 31 5 31 10 0 6 -11 10 -24 10
-14 0 -28 -4 -31 -10z"/>
<path d="M2225 630 c-16 -7 -17 -9 -3 -9 9 -1 20 4 23 9 7 11 7 11 -20 0z"/>
<path d="M2688 633 c7 -3 16 -2 19 1 4 3 -2 6 -13 5 -11 0 -14 -3 -6 -6z"/>
<path d="M4940 625 c0 -8 4 -15 10 -15 5 0 7 7 4 15 -4 8 -8 15 -10 15 -2 0
-4 -7 -4 -15z"/>
<path d="M2310 620 c0 -5 5 -10 10 -10 6 0 10 5 10 10 0 6 -4 10 -10 10 -5 0
-10 -4 -10 -10z"/>
<path d="M2165 610 c-3 -5 -1 -10 4 -10 6 0 11 5 11 10 0 6 -2 10 -4 10 -3 0
-8 -4 -11 -10z"/>
<path d="M1838 604 c6 -3 10 -10 6 -15 -3 -5 4 -9 16 -9 29 0 20 22 -11 26
-13 1 -18 0 -11 -2z"/>
<path d="M2280 578 c0 -21 11 -23 28 -6 17 17 15 24 -8 24 -13 0 -20 -7 -20
-18z"/>
<path d="M2612 570 c-10 -26 -5 -60 9 -60 5 0 6 7 3 15 -4 8 -1 22 6 31 10 11
10 18 2 26 -8 8 -14 5 -20 -12z"/>
<path d="M2370 569 c0 -5 9 -9 20 -9 11 0 20 4 20 8 0 4 -9 8 -20 9 -11 1 -20
-2 -20 -8z"/>
<path d="M2490 570 c0 -5 5 -10 11 -10 5 0 7 5 4 10 -3 6 -8 10 -11 10 -2 0
-4 -4 -4 -10z"/>
<path d="M2850 565 c-7 -8 -8 -15 -2 -15 5 0 15 7 22 15 7 8 8 15 2 15 -5 0
-15 -7 -22 -15z"/>
<path d="M2030 559 c0 -5 5 -7 10 -4 6 3 10 8 10 11 0 2 -4 4 -10 4 -5 0 -10
-5 -10 -11z"/>
<path d="M1940 510 c0 -5 5 -10 10 -10 6 0 10 5 10 10 0 6 -4 10 -10 10 -5 0
-10 -4 -10 -10z"/>
<path d="M1990 510 c0 -5 5 -10 10 -10 6 0 10 5 10 10 0 6 -4 10 -10 10 -5 0
-10 -4 -10 -10z"/>
<path d="M2370 475 c0 -8 7 -15 16 -15 14 0 14 3 4 15 -7 8 -14 15 -16 15 -2
0 -4 -7 -4 -15z"/>
<path d="M1993 472 c-23 -3 -31 -26 -13 -37 6 -3 10 -2 10 2 0 5 12 14 28 19
31 11 13 22 -25 16z"/>
<path d="M1912 453 c-6 -2 -10 -9 -7 -13 7 -11 35 -2 35 11 0 10 -8 10 -28 2z"/>
<path d="M2086 433 c-6 -14 15 -43 31 -43 4 0 9 11 9 24 2 28 -31 43 -40 19z"/>
<path d="M2286 443 c-11 -11 -6 -23 9 -23 8 0 15 4 15 9 0 13 -16 22 -24 14z"/>
<path d="M1937 423 c-4 -3 -7 -11 -7 -17 0 -6 5 -5 12 2 6 6 9 14 7 17 -3 3
-9 2 -12 -2z"/>
<path d="M2368 373 c7 -3 16 -2 19 1 4 3 -2 6 -13 5 -11 0 -14 -3 -6 -6z"/>
<path d="M2140 343 c0 -11 -5 -24 -12 -31 -13 -13 0 -16 19 -4 16 10 20 44 6
49 -8 3 -13 -3 -13 -14z"/>
<path d="M4955 169 c-4 -6 -5 -12 -2 -15 2 -3 7 2 10 11 7 17 1 20 -8 4z"/>
<path d="M5181 65 c-17 -19 -35 -35 -40 -35 -5 0 -11 -7 -15 -15 -4 -12 -2
-13 12 -6 23 13 86 81 80 86 -3 3 -19 -11 -37 -30z"/>
</g>
</svg>
